<?xml version="1.0" encoding="UTF-8"?>
<svg xmlns="http://www.w3.org/2000/svg" xmlns:xlink="http://www.w3.org/1999/xlink" width="309.739pt" height="206.335pt" viewBox="0 0 309.739 206.335">
<defs>
<g>
<g id="glyph-0-0">
<path d="M 2.421875 -1.609375 C 2.421875 -1.859375 2.421875 -2.4375 2.1875 -2.84375 C 1.9375 -3.296875 1.5625 -3.359375 1.3125 -3.359375 C 1.09375 -3.359375 0.703125 -3.296875 0.453125 -2.859375 C 0.21875 -2.46875 0.203125 -1.921875 0.203125 -1.609375 C 0.203125 -1.25 0.234375 -0.796875 0.4375 -0.421875 C 0.65625 -0.015625 1.03125 0.109375 1.3125 0.109375 C 1.8125 0.109375 2.09375 -0.1875 2.234375 -0.5 C 2.40625 -0.84375 2.421875 -1.3125 2.421875 -1.609375 Z M 1.3125 -0.21875 C 1.109375 -0.21875 0.875 -0.34375 0.75 -0.703125 C 0.640625 -1 0.640625 -1.3125 0.640625 -1.671875 C 0.640625 -2.140625 0.640625 -3.03125 1.3125 -3.03125 C 2 -3.03125 2 -2.140625 2 -1.671875 C 2 -1.34375 2 -0.984375 1.875 -0.65625 C 1.734375 -0.296875 1.484375 -0.21875 1.3125 -0.21875 Z M 1.3125 -0.21875 "/>
</g>
<g id="glyph-0-1">
<path d="M 3.453125 -3.515625 C 3.484375 -3.5625 3.5 -3.578125 3.5 -3.609375 C 3.5 -3.671875 3.4375 -3.71875 3.375 -3.71875 C 3.3125 -3.71875 3.296875 -3.703125 3.265625 -3.625 L 0.96875 0.0625 C 0.9375 0.109375 0.921875 0.125 0.921875 0.15625 C 0.921875 0.234375 0.96875 0.28125 1.03125 0.28125 C 1.09375 0.28125 1.109375 0.25 1.140625 0.203125 Z M 4.09375 -0.71875 C 4.09375 -1.296875 3.765625 -1.71875 3.375 -1.71875 C 3 -1.71875 2.640625 -1.3125 2.640625 -0.71875 C 2.640625 -0.125 3.015625 0.28125 3.375 0.28125 C 3.765625 0.28125 4.09375 -0.15625 4.09375 -0.71875 Z M 3.375 -0.046875 C 3.265625 -0.046875 3.171875 -0.140625 3.109375 -0.265625 C 3.046875 -0.421875 3.046875 -0.578125 3.046875 -0.71875 C 3.046875 -1.34375 3.296875 -1.390625 3.375 -1.390625 C 3.59375 -1.390625 3.734375 -1.078125 3.734375 -0.71875 C 3.734375 -0.359375 3.578125 -0.046875 3.375 -0.046875 Z M 1.75 -2.71875 C 1.75 -3.296875 1.421875 -3.71875 1.03125 -3.71875 C 0.671875 -3.71875 0.296875 -3.328125 0.296875 -2.71875 C 0.296875 -2.125 0.65625 -1.71875 1.03125 -1.71875 C 1.421875 -1.71875 1.75 -2.15625 1.75 -2.71875 Z M 1.03125 -2.046875 C 0.921875 -2.046875 0.8125 -2.140625 0.765625 -2.28125 C 0.703125 -2.421875 0.703125 -2.578125 0.703125 -2.71875 C 0.703125 -3.359375 0.953125 -3.40625 1.03125 -3.40625 C 1.234375 -3.40625 1.390625 -3.078125 1.390625 -2.734375 C 1.390625 -2.359375 1.234375 -2.046875 1.03125 -2.046875 Z M 1.03125 -2.046875 "/>
</g>
<g id="glyph-0-2">
<path d="M 1.40625 -0.375 C 1.34375 -0.375 1.28125 -0.375 1.234375 -0.375 L 0.65625 -0.375 L 1.4375 -1.0625 C 1.515625 -1.140625 1.765625 -1.328125 1.859375 -1.40625 C 2.078125 -1.59375 2.375 -1.859375 2.375 -2.296875 C 2.375 -2.859375 1.953125 -3.359375 1.234375 -3.359375 C 0.71875 -3.359375 0.390625 -3.078125 0.21875 -2.578125 L 0.453125 -2.28125 C 0.5625 -2.703125 0.734375 -3.015625 1.171875 -3.015625 C 1.59375 -3.015625 1.90625 -2.734375 1.90625 -2.28125 C 1.90625 -1.875 1.671875 -1.640625 1.359375 -1.34375 C 1.265625 -1.25 1 -1.03125 0.890625 -0.921875 C 0.75 -0.796875 0.40625 -0.46875 0.265625 -0.34375 L 0.265625 0 L 2.375 0 L 2.375 -0.375 Z M 1.40625 -0.375 "/>
</g>
<g id="glyph-0-3">
<path d="M 0.8125 -2.921875 L 2.1875 -2.921875 L 2.1875 -3.265625 L 0.421875 -3.265625 L 0.421875 -1.40625 L 0.78125 -1.40625 C 0.90625 -1.671875 1.140625 -1.78125 1.359375 -1.78125 C 1.5625 -1.78125 1.875 -1.65625 1.875 -1.015625 C 1.875 -0.375 1.453125 -0.21875 1.203125 -0.21875 C 0.875 -0.21875 0.5625 -0.390625 0.390625 -0.6875 L 0.203125 -0.375 C 0.4375 -0.078125 0.8125 0.109375 1.203125 0.109375 C 1.859375 0.109375 2.375 -0.40625 2.375 -1.015625 C 2.375 -1.625 1.90625 -2.109375 1.359375 -2.109375 C 1.15625 -2.109375 0.96875 -2.046875 0.8125 -1.921875 Z M 0.8125 -2.921875 "/>
</g>
<g id="glyph-0-4">
<path d="M 1.234375 -2.875 C 1.28125 -2.875 1.34375 -2.875 1.40625 -2.875 L 2.03125 -2.875 C 1.28125 -2.140625 0.796875 -1.109375 0.796875 0.046875 L 1.265625 0.046875 C 1.265625 -1.40625 1.96875 -2.4375 2.421875 -2.90625 L 2.421875 -3.265625 L 0.21875 -3.265625 L 0.21875 -2.875 Z M 1.234375 -2.875 "/>
</g>
<g id="glyph-0-5">
<path d="M 1.59375 -3.359375 L 1.484375 -3.359375 C 1.15625 -3.0625 0.75 -3.046875 0.453125 -3.03125 L 0.453125 -2.71875 C 0.65625 -2.734375 0.90625 -2.734375 1.140625 -2.84375 L 1.140625 -0.3125 L 0.484375 -0.3125 L 0.484375 0 L 2.25 0 L 2.25 -0.3125 L 1.59375 -0.3125 Z M 1.59375 -3.359375 "/>
</g>
<g id="glyph-0-6">
<path d="M 0.84375 -3.453125 L 0.421875 -3.453125 L 0.421875 0 L 0.859375 0 L 0.859375 -0.234375 C 0.96875 -0.140625 1.203125 0.046875 1.5625 0.046875 C 2.109375 0.046875 2.546875 -0.453125 2.546875 -1.109375 C 2.546875 -1.703125 2.203125 -2.25 1.703125 -2.25 C 1.390625 -2.25 1.09375 -2.15625 0.84375 -1.96875 Z M 0.859375 -1.5625 C 0.859375 -1.640625 0.859375 -1.703125 1.03125 -1.8125 C 1.109375 -1.859375 1.234375 -1.921875 1.40625 -1.921875 C 1.734375 -1.921875 2.109375 -1.703125 2.109375 -1.109375 C 2.109375 -0.5 1.703125 -0.28125 1.34375 -0.28125 C 1.171875 -0.28125 1 -0.359375 0.859375 -0.59375 Z M 0.859375 -1.5625 "/>
</g>
<g id="glyph-0-7">
<path d="M 2.140625 -0.546875 C 1.859375 -0.34375 1.546875 -0.28125 1.328125 -0.28125 C 0.90625 -0.28125 0.578125 -0.625 0.5625 -1.09375 L 2.1875 -1.09375 C 2.1875 -1.3125 2.15625 -1.65625 1.96875 -1.9375 C 1.78125 -2.1875 1.484375 -2.28125 1.25 -2.28125 C 0.640625 -2.28125 0.171875 -1.75 0.171875 -1.125 C 0.171875 -0.484375 0.671875 0.046875 1.328125 0.046875 C 1.609375 0.046875 1.90625 -0.03125 2.171875 -0.1875 Z M 0.59375 -1.390625 C 0.703125 -1.78125 1 -1.953125 1.25 -1.953125 C 1.46875 -1.953125 1.78125 -1.84375 1.890625 -1.390625 Z M 0.59375 -1.390625 "/>
</g>
<g id="glyph-0-8">
<path d="M 0.9375 -1.890625 L 1.515625 -1.890625 L 1.515625 -2.203125 L 0.921875 -2.203125 L 0.921875 -2.78125 C 0.921875 -3.125 1.234375 -3.171875 1.40625 -3.171875 C 1.515625 -3.171875 1.640625 -3.15625 1.828125 -3.078125 L 1.828125 -3.453125 C 1.703125 -3.484375 1.546875 -3.5 1.40625 -3.5 C 0.90625 -3.5 0.53125 -3.125 0.53125 -2.640625 L 0.53125 -2.203125 L 0.140625 -2.203125 L 0.140625 -1.890625 L 0.53125 -1.890625 L 0.53125 0 L 0.9375 0 Z M 0.9375 -1.890625 "/>
</g>
<g id="glyph-0-9">
<path d="M 2.484375 -1.09375 C 2.484375 -1.75 1.96875 -2.28125 1.3125 -2.28125 C 0.671875 -2.28125 0.15625 -1.734375 0.15625 -1.09375 C 0.15625 -0.453125 0.671875 0.046875 1.3125 0.046875 C 1.96875 0.046875 2.484375 -0.453125 2.484375 -1.09375 Z M 1.3125 -0.296875 C 0.921875 -0.296875 0.578125 -0.578125 0.578125 -1.140625 C 0.578125 -1.703125 0.953125 -1.953125 1.3125 -1.953125 C 1.6875 -1.953125 2.046875 -1.6875 2.046875 -1.140625 C 2.046875 -0.578125 1.703125 -0.296875 1.3125 -0.296875 Z M 1.3125 -0.296875 "/>
</g>
<g id="glyph-0-10">
<path d="M 0.84375 -1.0625 C 0.84375 -1.59375 1.28125 -1.890625 1.71875 -1.890625 L 1.71875 -2.25 C 1.3125 -2.25 1 -2.046875 0.8125 -1.78125 L 0.8125 -2.234375 L 0.421875 -2.234375 L 0.421875 0 L 0.84375 0 Z M 0.84375 -1.0625 "/>
</g>
<g id="glyph-0-11">
<path d="M 2.109375 -1.4375 C 2.109375 -1.9375 1.734375 -2.28125 1.234375 -2.28125 C 0.921875 -2.28125 0.6875 -2.21875 0.40625 -2.0625 L 0.4375 -1.703125 C 0.59375 -1.8125 0.84375 -1.96875 1.234375 -1.96875 C 1.453125 -1.96875 1.6875 -1.796875 1.6875 -1.421875 L 1.6875 -1.234375 C 0.953125 -1.203125 0.21875 -1.046875 0.21875 -0.59375 C 0.21875 -0.34375 0.390625 0.046875 0.828125 0.046875 C 1.046875 0.046875 1.4375 0 1.703125 -0.1875 L 1.703125 0 L 2.109375 0 Z M 1.6875 -0.703125 C 1.6875 -0.609375 1.6875 -0.484375 1.515625 -0.375 C 1.34375 -0.28125 1.15625 -0.28125 1.109375 -0.28125 C 0.828125 -0.28125 0.625 -0.40625 0.625 -0.59375 C 0.625 -0.90625 1.453125 -0.9375 1.6875 -0.953125 Z M 1.6875 -0.703125 "/>
</g>
<g id="glyph-0-12">
<path d="M 0.9375 -1.890625 L 1.671875 -1.890625 L 1.671875 -2.203125 L 0.9375 -2.203125 L 0.9375 -2.84375 L 0.546875 -2.84375 L 0.546875 -2.203125 L 0.09375 -2.203125 L 0.09375 -1.890625 L 0.53125 -1.890625 L 0.53125 -0.640625 C 0.53125 -0.296875 0.625 0.046875 0.984375 0.046875 C 1.34375 0.046875 1.609375 -0.0625 1.765625 -0.140625 L 1.671875 -0.453125 C 1.515625 -0.328125 1.34375 -0.296875 1.203125 -0.296875 C 0.984375 -0.296875 0.9375 -0.5 0.9375 -0.71875 Z M 0.9375 -1.890625 "/>
</g>
<g id="glyph-1-0">
<path d="M -0.546875 -2.140625 C -0.34375 -1.859375 -0.28125 -1.546875 -0.28125 -1.328125 C -0.28125 -0.90625 -0.625 -0.578125 -1.09375 -0.5625 L -1.09375 -2.1875 C -1.3125 -2.1875 -1.65625 -2.15625 -1.9375 -1.96875 C -2.1875 -1.78125 -2.28125 -1.484375 -2.28125 -1.25 C -2.28125 -0.640625 -1.75 -0.171875 -1.125 -0.171875 C -0.484375 -0.171875 0.046875 -0.671875 0.046875 -1.328125 C 0.046875 -1.609375 -0.03125 -1.90625 -0.1875 -2.171875 Z M -1.390625 -0.59375 C -1.78125 -0.703125 -1.953125 -1 -1.953125 -1.25 C -1.953125 -1.46875 -1.84375 -1.78125 -1.390625 -1.890625 Z M -1.390625 -0.59375 "/>
</g>
<g id="glyph-1-1">
<path d="M -1.140625 -1.375 L -2.203125 -2.34375 L -2.203125 -1.90625 L -1.390625 -1.203125 L -2.203125 -0.484375 L -2.203125 -0.03125 L -1.140625 -1.03125 L 0 0 L 0 -0.4375 L -0.9375 -1.203125 L 0 -1.984375 L 0 -2.421875 Z M -1.140625 -1.375 "/>
</g>
<g id="glyph-1-2">
<path d="M -1.4375 -2.109375 C -1.9375 -2.109375 -2.28125 -1.734375 -2.28125 -1.234375 C -2.28125 -0.921875 -2.21875 -0.6875 -2.0625 -0.40625 L -1.703125 -0.4375 C -1.8125 -0.59375 -1.96875 -0.84375 -1.96875 -1.234375 C -1.96875 -1.453125 -1.796875 -1.6875 -1.421875 -1.6875 L -1.234375 -1.6875 C -1.203125 -0.953125 -1.046875 -0.21875 -0.59375 -0.21875 C -0.34375 -0.21875 0.046875 -0.390625 0.046875 -0.828125 C 0.046875 -1.046875 0 -1.4375 -0.1875 -1.703125 L 0 -1.703125 L 0 -2.109375 Z M -0.703125 -1.6875 C -0.609375 -1.6875 -0.484375 -1.6875 -0.375 -1.515625 C -0.28125 -1.34375 -0.28125 -1.15625 -0.28125 -1.109375 C -0.28125 -0.828125 -0.40625 -0.625 -0.59375 -0.625 C -0.90625 -0.625 -0.9375 -1.453125 -0.953125 -1.6875 Z M -0.703125 -1.6875 "/>
</g>
<g id="glyph-1-3">
<path d="M -0.546875 -2.15625 C -0.375 -1.90625 -0.296875 -1.640625 -0.296875 -1.34375 C -0.296875 -0.875 -0.65625 -0.609375 -1.109375 -0.609375 C -1.484375 -0.609375 -1.9375 -0.8125 -1.9375 -1.34375 C -1.9375 -1.6875 -1.875 -1.84375 -1.703125 -2.109375 L -2.0625 -2.171875 C -2.21875 -1.875 -2.28125 -1.734375 -2.28125 -1.34375 C -2.28125 -0.609375 -1.671875 -0.171875 -1.109375 -0.171875 C -0.5 -0.171875 0.046875 -0.65625 0.046875 -1.328125 C 0.046875 -1.671875 -0.046875 -1.984375 -0.171875 -2.1875 Z M -0.546875 -2.15625 "/>
</g>
<g id="glyph-1-4">
<path d="M -1.890625 -0.9375 L -1.890625 -1.671875 L -2.203125 -1.671875 L -2.203125 -0.9375 L -2.84375 -0.9375 L -2.84375 -0.546875 L -2.203125 -0.546875 L -2.203125 -0.09375 L -1.890625 -0.09375 L -1.890625 -0.53125 L -0.640625 -0.53125 C -0.296875 -0.53125 0.046875 -0.625 0.046875 -0.984375 C 0.046875 -1.34375 -0.0625 -1.609375 -0.140625 -1.765625 L -0.453125 -1.671875 C -0.328125 -1.515625 -0.296875 -1.34375 -0.296875 -1.203125 C -0.296875 -0.984375 -0.5 -0.9375 -0.71875 -0.9375 Z M -1.890625 -0.9375 "/>
</g>
<g id="glyph-1-5">
<path d="M -0.953125 -1.453125 L -1.265625 -1.453125 L -1.265625 -0.0625 L -0.953125 -0.0625 Z M -0.953125 -1.453125 "/>
</g>
<g id="glyph-1-6">
<path d="M -1.46875 -3.78125 C -1.859375 -3.78125 -2.25 -3.65625 -2.25 -3.046875 C -2.25 -2.640625 -2.015625 -2.375 -1.859375 -2.25 C -1.984375 -2.203125 -2.25 -2.078125 -2.25 -1.578125 C -2.25 -1.296875 -2.140625 -1.03125 -1.875 -0.8125 L -2.234375 -0.8125 L -2.234375 -0.40625 L 0 -0.40625 L 0 -0.84375 L -1.203125 -0.84375 C -1.53125 -0.84375 -1.921875 -0.984375 -1.921875 -1.359375 C -1.921875 -1.875 -1.578125 -1.875 -1.4375 -1.875 L 0 -1.875 L 0 -2.3125 L -1.203125 -2.3125 C -1.53125 -2.3125 -1.921875 -2.453125 -1.921875 -2.828125 C -1.921875 -3.34375 -1.578125 -3.34375 -1.4375 -3.34375 L 0 -3.34375 L 0 -3.78125 Z M -1.46875 -3.78125 "/>
</g>
<g id="glyph-1-7">
<path d="M -1.46875 -2.3125 C -1.859375 -2.3125 -2.25 -2.203125 -2.25 -1.578125 C -2.25 -1.15625 -2 -0.921875 -1.90625 -0.828125 L -3.453125 -0.828125 L -3.453125 -0.40625 L 0 -0.40625 L 0 -0.84375 L -1.203125 -0.84375 C -1.53125 -0.84375 -1.921875 -0.984375 -1.921875 -1.359375 C -1.921875 -1.875 -1.578125 -1.875 -1.4375 -1.875 L 0 -1.875 L 0 -2.3125 Z M -1.46875 -2.3125 "/>
</g>
<g id="glyph-1-8">
<path d="M -2.125 -1.8125 C -2.265625 -1.46875 -2.28125 -1.234375 -2.28125 -1.046875 C -2.28125 -0.921875 -2.28125 -0.171875 -1.625 -0.171875 C -1.390625 -0.171875 -1.25 -0.296875 -1.203125 -0.375 C -1.03125 -0.546875 -0.984375 -0.75 -0.9375 -1.015625 C -0.890625 -1.25 -0.84375 -1.515625 -0.59375 -1.515625 C -0.28125 -1.515625 -0.28125 -1.109375 -0.28125 -1.03125 C -0.28125 -0.71875 -0.40625 -0.421875 -0.546875 -0.21875 L -0.171875 -0.15625 C -0.078125 -0.3125 0.046875 -0.625 0.046875 -1.03125 C 0.046875 -1.25 0.015625 -1.46875 -0.125 -1.65625 C -0.265625 -1.84375 -0.484375 -1.90625 -0.640625 -1.90625 C -0.734375 -1.90625 -0.921875 -1.890625 -1.125 -1.6875 C -1.28125 -1.5 -1.3125 -1.328125 -1.359375 -1.078125 C -1.421875 -0.796875 -1.453125 -0.5625 -1.671875 -0.5625 C -1.96875 -0.5625 -1.96875 -0.921875 -1.96875 -1 C -1.96875 -1.28125 -1.90625 -1.5 -1.78125 -1.75 Z M -2.125 -1.8125 "/>
</g>
<g id="glyph-1-9">
<path d="M -1.09375 -2.484375 C -1.75 -2.484375 -2.28125 -1.96875 -2.28125 -1.3125 C -2.28125 -0.671875 -1.734375 -0.15625 -1.09375 -0.15625 C -0.453125 -0.15625 0.046875 -0.671875 0.046875 -1.3125 C 0.046875 -1.96875 -0.453125 -2.484375 -1.09375 -2.484375 Z M -0.296875 -1.3125 C -0.296875 -0.921875 -0.578125 -0.578125 -1.140625 -0.578125 C -1.703125 -0.578125 -1.953125 -0.953125 -1.953125 -1.3125 C -1.953125 -1.6875 -1.6875 -2.046875 -1.140625 -2.046875 C -0.578125 -2.046875 -0.296875 -1.703125 -0.296875 -1.3125 Z M -0.296875 -1.3125 "/>
</g>
<g id="glyph-1-10">
<path d="M -1.0625 -0.84375 C -1.59375 -0.84375 -1.890625 -1.28125 -1.890625 -1.71875 L -2.25 -1.71875 C -2.25 -1.3125 -2.046875 -1 -1.78125 -0.8125 L -2.234375 -0.8125 L -2.234375 -0.421875 L 0 -0.421875 L 0 -0.84375 Z M -1.0625 -0.84375 "/>
</g>
<g id="glyph-2-0">
<path d="M 3.390625 -2.265625 C 3.390625 -2.59375 3.390625 -3.40625 3.0625 -3.984375 C 2.71875 -4.609375 2.171875 -4.703125 1.84375 -4.703125 C 1.53125 -4.703125 0.984375 -4.609375 0.640625 -4.015625 C 0.3125 -3.453125 0.296875 -2.703125 0.296875 -2.265625 C 0.296875 -1.75 0.3125 -1.109375 0.609375 -0.578125 C 0.921875 -0.015625 1.4375 0.140625 1.84375 0.140625 C 2.53125 0.140625 2.921875 -0.25 3.125 -0.703125 C 3.375 -1.1875 3.390625 -1.828125 3.390625 -2.265625 Z M 1.84375 -0.3125 C 1.546875 -0.3125 1.21875 -0.484375 1.046875 -0.984375 C 0.90625 -1.40625 0.890625 -1.84375 0.890625 -2.34375 C 0.890625 -2.984375 0.890625 -4.25 1.84375 -4.25 C 2.78125 -4.25 2.78125 -2.984375 2.78125 -2.34375 C 2.78125 -1.890625 2.78125 -1.375 2.625 -0.921875 C 2.421875 -0.421875 2.078125 -0.3125 1.84375 -0.3125 Z M 1.84375 -0.3125 "/>
</g>
<g id="glyph-2-1">
<path d="M 3.234375 -4.9375 C 3.28125 -5.015625 3.28125 -5.046875 3.28125 -5.0625 C 3.28125 -5.140625 3.203125 -5.21875 3.109375 -5.21875 C 3 -5.21875 2.96875 -5.125 2.9375 -5.046875 L 0.4375 1.453125 C 0.40625 1.53125 0.40625 1.5625 0.40625 1.578125 C 0.40625 1.671875 0.484375 1.734375 0.5625 1.734375 C 0.6875 1.734375 0.703125 1.65625 0.75 1.578125 Z M 3.234375 -4.9375 "/>
</g>
<g id="glyph-2-2">
<path d="M 2.234375 -4.703125 L 2.078125 -4.703125 C 1.625 -4.296875 1.0625 -4.265625 0.640625 -4.25 L 0.640625 -3.8125 C 0.90625 -3.8125 1.265625 -3.828125 1.609375 -3.96875 L 1.609375 -0.4375 L 0.6875 -0.4375 L 0.6875 0 L 3.15625 0 L 3.15625 -0.4375 L 2.234375 -0.4375 Z M 2.234375 -4.703125 "/>
</g>
<g id="glyph-2-3">
<path d="M 3.046875 -4.5625 C 2.671875 -4.703125 2.40625 -4.703125 2.28125 -4.703125 C 1.21875 -4.703125 0.3125 -3.71875 0.3125 -2.25 C 0.3125 -0.359375 1.15625 0.140625 1.859375 0.140625 C 2.421875 0.140625 2.71875 -0.125 2.921875 -0.34375 C 3.375 -0.8125 3.375 -1.3125 3.375 -1.546875 C 3.375 -2.46875 2.890625 -3.21875 2.21875 -3.21875 C 1.53125 -3.21875 1.15625 -2.859375 0.953125 -2.65625 C 1.046875 -3.609375 1.53125 -4.28125 2.28125 -4.28125 C 2.421875 -4.28125 2.703125 -4.265625 3.046875 -4.125 Z M 0.96875 -1.53125 C 0.96875 -1.578125 0.96875 -1.671875 0.96875 -1.703125 C 0.96875 -2.1875 1.265625 -2.765625 1.890625 -2.765625 C 2.734375 -2.765625 2.734375 -1.78125 2.734375 -1.546875 C 2.734375 -1.28125 2.734375 -1 2.546875 -0.703125 C 2.390625 -0.453125 2.171875 -0.3125 1.859375 -0.3125 C 1.125 -0.3125 1 -1.21875 0.96875 -1.53125 Z M 0.96875 -1.53125 "/>
</g>
<g id="glyph-2-4">
<path d="M 0.703125 -3.5625 C 0.984375 -4.125 1.484375 -4.28125 1.8125 -4.28125 C 2.21875 -4.28125 2.53125 -4.046875 2.53125 -3.640625 C 2.53125 -3.28125 2.28125 -2.828125 1.75 -2.734375 C 1.71875 -2.71875 1.6875 -2.71875 1.234375 -2.6875 L 1.234375 -2.234375 L 1.765625 -2.234375 C 2.4375 -2.234375 2.671875 -1.703125 2.671875 -1.265625 C 2.671875 -0.734375 2.34375 -0.3125 1.796875 -0.3125 C 1.3125 -0.3125 0.75 -0.546875 0.390625 -1 L 0.3125 -0.546875 C 0.703125 -0.09375 1.265625 0.140625 1.8125 0.140625 C 2.71875 0.140625 3.375 -0.53125 3.375 -1.265625 C 3.375 -1.828125 2.921875 -2.296875 2.375 -2.453125 C 2.90625 -2.71875 3.171875 -3.1875 3.171875 -3.640625 C 3.171875 -4.234375 2.5625 -4.703125 1.828125 -4.703125 C 1.203125 -4.703125 0.703125 -4.390625 0.40625 -3.96875 Z M 0.703125 -3.5625 "/>
</g>
<g id="glyph-2-5">
<path d="M 1.96875 -0.53125 C 1.890625 -0.53125 1.796875 -0.53125 1.71875 -0.53125 L 0.921875 -0.53125 L 2 -1.484375 C 2.125 -1.59375 2.46875 -1.84375 2.59375 -1.953125 C 2.90625 -2.234375 3.3125 -2.59375 3.3125 -3.203125 C 3.3125 -3.984375 2.734375 -4.703125 1.734375 -4.703125 C 1 -4.703125 0.546875 -4.3125 0.3125 -3.609375 L 0.625 -3.1875 C 0.796875 -3.78125 1.03125 -4.234375 1.640625 -4.234375 C 2.21875 -4.234375 2.671875 -3.8125 2.671875 -3.1875 C 2.671875 -2.609375 2.328125 -2.28125 1.90625 -1.890625 C 1.765625 -1.75 1.390625 -1.4375 1.25 -1.296875 C 1.046875 -1.125 0.5625 -0.65625 0.375 -0.484375 L 0.375 0 L 3.3125 0 L 3.3125 -0.53125 Z M 1.96875 -0.53125 "/>
</g>
<g id="glyph-2-6">
<path d="M 2.875 -4.296875 L 3.53125 -4.296875 C 3.609375 -4.296875 3.6875 -4.296875 3.78125 -4.296875 L 4.78125 -4.296875 L 4.78125 -4.78125 L 0.265625 -4.78125 L 0.265625 -4.296875 L 1.265625 -4.296875 C 1.34375 -4.296875 1.4375 -4.296875 1.515625 -4.296875 L 2.171875 -4.296875 L 2.171875 0 L 2.875 0 Z M 2.875 -4.296875 "/>
</g>
<g id="glyph-2-7">
<path d="M 1.171875 -1.484375 C 1.171875 -2.234375 1.796875 -2.640625 2.40625 -2.640625 L 2.40625 -3.15625 C 1.828125 -3.15625 1.40625 -2.859375 1.125 -2.5 L 1.125 -3.140625 L 0.59375 -3.140625 L 0.59375 0 L 1.171875 0 Z M 1.171875 -1.484375 "/>
</g>
<g id="glyph-2-8">
<path d="M 2.96875 -2 C 2.96875 -2.71875 2.421875 -3.1875 1.734375 -3.1875 C 1.296875 -3.1875 0.953125 -3.09375 0.5625 -2.890625 L 0.609375 -2.390625 C 0.84375 -2.53125 1.1875 -2.75 1.734375 -2.75 C 2.03125 -2.75 2.359375 -2.515625 2.359375 -2 L 2.359375 -1.71875 C 1.328125 -1.6875 0.3125 -1.46875 0.3125 -0.828125 C 0.3125 -0.46875 0.546875 0.0625 1.15625 0.0625 C 1.453125 0.0625 2.015625 0 2.375 -0.265625 L 2.375 0 L 2.96875 0 Z M 2.359375 -0.984375 C 2.359375 -0.84375 2.359375 -0.671875 2.109375 -0.515625 C 1.890625 -0.390625 1.625 -0.390625 1.546875 -0.390625 C 1.15625 -0.390625 0.875 -0.5625 0.875 -0.828125 C 0.875 -1.265625 2.046875 -1.3125 2.359375 -1.328125 Z M 2.359375 -0.984375 "/>
</g>
<g id="glyph-2-9">
<path d="M 1.21875 -4.765625 L 0.515625 -4.765625 L 0.515625 -4.0625 L 1.21875 -4.0625 Z M 1.171875 -3.09375 L 0.578125 -3.09375 L 0.578125 0 L 1.171875 0 Z M 1.171875 -3.09375 "/>
</g>
<g id="glyph-2-10">
<path d="M 3.234375 -2.0625 C 3.234375 -2.59375 3.078125 -3.15625 2.21875 -3.15625 C 1.828125 -3.15625 1.4375 -3 1.140625 -2.625 L 1.140625 -3.140625 L 0.578125 -3.140625 L 0.578125 0 L 1.1875 0 L 1.1875 -1.6875 C 1.1875 -2.15625 1.375 -2.703125 1.90625 -2.703125 C 2.625 -2.703125 2.625 -2.21875 2.625 -2.015625 L 2.625 0 L 3.234375 0 Z M 3.234375 -2.0625 "/>
</g>
<g id="glyph-2-11">
<path d="M 3.5 -3.15625 C 3.34375 -3.15625 2.875 -3.15625 2.34375 -2.953125 L 2.34375 -2.9375 C 2.09375 -3.109375 1.84375 -3.15625 1.640625 -3.15625 C 0.953125 -3.15625 0.453125 -2.625 0.453125 -2.015625 C 0.453125 -1.78125 0.53125 -1.53125 0.703125 -1.328125 C 0.59375 -1.21875 0.5 -1.015625 0.5 -0.765625 C 0.5 -0.484375 0.609375 -0.3125 0.671875 -0.234375 C 0.28125 0 0.203125 0.3125 0.203125 0.484375 C 0.203125 1.015625 0.9375 1.421875 1.84375 1.421875 C 2.75 1.421875 3.484375 1.015625 3.484375 0.484375 C 3.484375 -0.5 2.265625 -0.5 1.953125 -0.5 L 1.3125 -0.5 C 1.203125 -0.5 0.90625 -0.5 0.90625 -0.859375 C 0.90625 -1 0.953125 -1.078125 0.953125 -1.078125 C 1.203125 -0.9375 1.453125 -0.890625 1.640625 -0.890625 C 2.3125 -0.890625 2.828125 -1.421875 2.828125 -2.015625 C 2.828125 -2.234375 2.765625 -2.4375 2.640625 -2.625 C 2.609375 -2.671875 2.609375 -2.671875 2.609375 -2.6875 C 2.609375 -2.71875 3.03125 -2.71875 3.0625 -2.71875 C 3.0625 -2.71875 3.328125 -2.71875 3.578125 -2.6875 Z M 1.640625 -1.3125 C 1.265625 -1.3125 0.984375 -1.546875 0.984375 -2.015625 C 0.984375 -2.5625 1.328125 -2.71875 1.640625 -2.71875 C 2.015625 -2.71875 2.28125 -2.484375 2.28125 -2.015625 C 2.28125 -1.484375 1.9375 -1.3125 1.640625 -1.3125 Z M 1.96875 0.046875 C 2.125 0.046875 2.953125 0.046875 2.953125 0.484375 C 2.953125 0.78125 2.421875 1 1.84375 1 C 1.265625 1 0.734375 0.78125 0.734375 0.484375 C 0.734375 0.453125 0.734375 0.046875 1.296875 0.046875 Z M 1.96875 0.046875 "/>
</g>
<g id="glyph-2-12">
<path d="M 2.53125 -2.96875 C 2.0625 -3.171875 1.71875 -3.1875 1.46875 -3.1875 C 1.296875 -3.1875 0.25 -3.1875 0.25 -2.265625 C 0.25 -1.9375 0.421875 -1.765625 0.515625 -1.671875 C 0.765625 -1.4375 1.046875 -1.375 1.421875 -1.3125 C 1.75 -1.25 2.125 -1.171875 2.125 -0.84375 C 2.125 -0.40625 1.546875 -0.40625 1.453125 -0.40625 C 1 -0.40625 0.578125 -0.5625 0.3125 -0.765625 L 0.203125 -0.234375 C 0.4375 -0.125 0.875 0.0625 1.453125 0.0625 C 1.765625 0.0625 2.0625 0.015625 2.328125 -0.171875 C 2.578125 -0.359375 2.65625 -0.671875 2.65625 -0.90625 C 2.65625 -1.03125 2.65625 -1.296875 2.359375 -1.5625 C 2.09375 -1.796875 1.84375 -1.84375 1.515625 -1.90625 C 1.109375 -1.984375 0.78125 -2.046875 0.78125 -2.34375 C 0.78125 -2.75 1.296875 -2.75 1.390625 -2.75 C 1.796875 -2.75 2.09375 -2.65625 2.453125 -2.484375 Z M 2.53125 -2.96875 "/>
</g>
<g id="glyph-2-13">
<path d="M 2.984375 -0.765625 C 2.59375 -0.484375 2.15625 -0.390625 1.859375 -0.390625 C 1.265625 -0.390625 0.796875 -0.890625 0.78125 -1.515625 L 3.0625 -1.515625 C 3.0625 -1.84375 3.03125 -2.3125 2.75 -2.703125 C 2.5 -3.0625 2.09375 -3.1875 1.75 -3.1875 C 0.890625 -3.1875 0.25 -2.453125 0.25 -1.5625 C 0.25 -0.671875 0.9375 0.0625 1.859375 0.0625 C 2.265625 0.0625 2.671875 -0.046875 3.03125 -0.265625 Z M 0.828125 -1.9375 C 0.984375 -2.5 1.390625 -2.734375 1.75 -2.734375 C 2.046875 -2.734375 2.5 -2.59375 2.640625 -1.9375 Z M 0.828125 -1.9375 "/>
</g>
<g id="glyph-2-14">
<path d="M 1.3125 -2.65625 L 2.34375 -2.65625 L 2.34375 -3.09375 L 1.3125 -3.09375 L 1.3125 -3.96875 L 0.765625 -3.96875 L 0.765625 -3.09375 L 0.140625 -3.09375 L 0.140625 -2.65625 L 0.75 -2.65625 L 0.75 -0.890625 C 0.75 -0.421875 0.875 0.0625 1.375 0.0625 C 1.875 0.0625 2.25 -0.09375 2.46875 -0.1875 L 2.34375 -0.625 C 2.109375 -0.46875 1.875 -0.40625 1.671875 -0.40625 C 1.390625 -0.40625 1.3125 -0.703125 1.3125 -1.015625 Z M 1.3125 -2.65625 "/>
</g>
<g id="glyph-2-15">
<path d="M 2.125 -5.21875 C 2 -5.21875 1.984375 -5.21875 1.90625 -5.140625 C 1.03125 -4.375 0.578125 -3.140625 0.578125 -1.734375 C 0.578125 -0.421875 0.984375 0.84375 1.890625 1.640625 C 1.984375 1.734375 2 1.734375 2.125 1.734375 L 2.453125 1.734375 C 2.4375 1.71875 1.765625 1.140625 1.4375 0.0625 C 1.265625 -0.484375 1.1875 -1.046875 1.1875 -1.734375 C 1.1875 -4.140625 2.3125 -5.09375 2.453125 -5.21875 Z M 2.125 -5.21875 "/>
</g>
<g id="glyph-2-16">
<path d="M 3.21875 -3.15625 L 2.640625 -3.15625 L 2.640625 -2.6875 C 2.390625 -2.96875 2.015625 -3.15625 1.609375 -3.15625 C 0.875 -3.15625 0.25 -2.46875 0.25 -1.53125 C 0.25 -0.671875 0.78125 0.0625 1.46875 0.0625 C 1.703125 0.0625 2.171875 0.015625 2.609375 -0.34375 L 2.609375 1.34375 L 3.21875 1.34375 Z M 2.640625 -0.859375 C 2.390625 -0.46875 2.046875 -0.390625 1.84375 -0.390625 C 1.28125 -0.390625 0.859375 -0.921875 0.859375 -1.53125 C 0.859375 -2.21875 1.375 -2.671875 1.921875 -2.671875 C 2.375 -2.671875 2.640625 -2.21875 2.640625 -1.9375 Z M 2.640625 -0.859375 "/>
</g>
<g id="glyph-2-17">
<path d="M 3.234375 -3.09375 L 2.625 -3.09375 L 2.625 -1.078125 C 2.625 -0.515625 2.15625 -0.34375 1.75 -0.34375 C 1.234375 -0.34375 1.1875 -0.484375 1.1875 -0.796875 L 1.1875 -3.09375 L 0.578125 -3.09375 L 0.578125 -0.765625 C 0.578125 -0.140625 0.84375 0.0625 1.328125 0.0625 C 1.625 0.0625 2.234375 0.015625 2.65625 -0.3125 L 2.65625 0 L 3.234375 0 Z M 3.234375 -3.09375 "/>
</g>
<g id="glyph-2-18">
<path d="M 3.484375 -1.515625 C 3.484375 -2.4375 2.75 -3.1875 1.84375 -3.1875 C 0.9375 -3.1875 0.203125 -2.4375 0.203125 -1.515625 C 0.203125 -0.640625 0.953125 0.0625 1.84375 0.0625 C 2.75 0.0625 3.484375 -0.640625 3.484375 -1.515625 Z M 1.84375 -0.40625 C 1.296875 -0.40625 0.8125 -0.8125 0.8125 -1.59375 C 0.8125 -2.390625 1.328125 -2.734375 1.84375 -2.734375 C 2.359375 -2.734375 2.875 -2.375 2.875 -1.59375 C 2.875 -0.8125 2.375 -0.40625 1.84375 -0.40625 Z M 1.84375 -0.40625 "/>
</g>
<g id="glyph-2-19">
<path d="M 0.75 1.734375 C 0.859375 1.734375 0.875 1.734375 0.953125 1.65625 C 1.828125 0.890625 2.28125 -0.34375 2.28125 -1.734375 C 2.28125 -3.046875 1.890625 -4.3125 0.96875 -5.125 C 0.875 -5.21875 0.859375 -5.21875 0.75 -5.21875 L 0.40625 -5.21875 C 0.4375 -5.203125 1.109375 -4.625 1.421875 -3.546875 C 1.59375 -3 1.671875 -2.421875 1.671875 -1.734375 C 1.671875 0.671875 0.546875 1.625 0.40625 1.734375 Z M 0.75 1.734375 "/>
</g>
<g id="glyph-2-20">
<path d="M 4.53125 -4.828125 L 3.828125 -4.828125 L 3.828125 -2.734375 L 1.375 -2.734375 L 1.375 -4.828125 L 0.671875 -4.828125 L 0.671875 0 L 1.375 0 L 1.375 -2.28125 L 3.828125 -2.28125 L 3.828125 0 L 4.53125 0 Z M 4.53125 -4.828125 "/>
</g>
<g id="glyph-2-21">
<path d="M 1.171875 -4.828125 L 0.578125 -4.828125 L 0.578125 0 L 1.171875 0 Z M 1.171875 -4.828125 "/>
</g>
<g id="glyph-2-22">
<path d="M 3.21875 -4.828125 L 2.640625 -4.828125 L 2.640625 -2.78125 C 2.1875 -3.109375 1.734375 -3.15625 1.53125 -3.15625 C 0.8125 -3.15625 0.25 -2.421875 0.25 -1.546875 C 0.25 -0.65625 0.796875 0.0625 1.515625 0.0625 C 1.953125 0.0625 2.34375 -0.125 2.609375 -0.359375 L 2.609375 0 L 3.21875 0 Z M 2.609375 -0.859375 C 2.4375 -0.578125 2.171875 -0.390625 1.84375 -0.390625 C 1.359375 -0.390625 0.859375 -0.734375 0.859375 -1.53125 C 0.859375 -2.40625 1.453125 -2.703125 1.921875 -2.703125 C 2.203125 -2.703125 2.4375 -2.578125 2.609375 -2.34375 Z M 2.609375 -0.859375 "/>
</g>
<g id="glyph-2-23">
<path d="M 2.046875 -1.328125 L 2.046875 -1.765625 L 0.078125 -1.765625 L 0.078125 -1.328125 Z M 2.046875 -1.328125 "/>
</g>
<g id="glyph-2-24">
<path d="M 1.203125 -0.328125 C 1.5625 0 1.953125 0.0625 2.203125 0.0625 C 2.9375 0.0625 3.5625 -0.625 3.5625 -1.546875 C 3.5625 -2.390625 3.09375 -3.15625 2.40625 -3.15625 C 2.09375 -3.15625 1.578125 -3.0625 1.171875 -2.75 L 1.171875 -3.09375 L 0.59375 -3.09375 L 0.59375 1.34375 L 1.203125 1.34375 Z M 1.203125 -2.3125 C 1.359375 -2.5 1.625 -2.671875 1.953125 -2.671875 C 2.515625 -2.671875 2.953125 -2.15625 2.953125 -1.546875 C 2.953125 -0.859375 2.4375 -0.390625 1.890625 -0.390625 C 1.78125 -0.390625 1.609375 -0.40625 1.4375 -0.546875 C 1.21875 -0.703125 1.203125 -0.8125 1.203125 -0.953125 Z M 1.203125 -2.3125 "/>
</g>
<g id="glyph-3-0">
<path d="M 2.453125 -6.390625 C 1.78125 -6.34375 1.328125 -6.171875 1 -5.84375 C 0.71875 -5.53125 0.5625 -5.125 0.546875 -4.609375 C 0.546875 -4.40625 0.546875 -4.28125 0.59375 -4.125 C 0.734375 -3.546875 1.203125 -3.0625 1.828125 -2.8125 C 1.96875 -2.75 2.0625 -2.71875 2.5625 -2.609375 C 3.09375 -2.5 3.125 -2.484375 3.234375 -2.4375 C 3.484375 -2.3125 3.671875 -2.125 3.734375 -1.90625 C 3.765625 -1.8125 3.78125 -1.71875 3.78125 -1.59375 C 3.75 -1.09375 3.484375 -0.84375 2.921875 -0.796875 C 2.78125 -0.78125 2.53125 -0.78125 2.390625 -0.796875 C 1.8125 -0.890625 1.265625 -1.140625 0.84375 -1.53125 C 0.765625 -1.609375 0.734375 -1.625 0.671875 -1.59375 C 0.65625 -1.59375 0.640625 -1.578125 0.625 -1.5625 C 0.609375 -1.53125 0.4375 -0.546875 0.4375 -0.515625 C 0.453125 -0.46875 0.46875 -0.453125 0.609375 -0.359375 C 1.140625 -0.078125 1.6875 0.109375 2.296875 0.171875 C 2.46875 0.203125 2.8125 0.203125 3 0.1875 C 3.640625 0.140625 4.078125 -0.03125 4.421875 -0.359375 C 4.671875 -0.640625 4.8125 -0.96875 4.890625 -1.453125 C 4.90625 -1.609375 4.90625 -1.96875 4.890625 -2.09375 C 4.828125 -2.421875 4.71875 -2.6875 4.515625 -2.9375 C 4.4375 -3.046875 4.265625 -3.21875 4.171875 -3.3125 C 3.9375 -3.5 3.640625 -3.65625 3.359375 -3.734375 C 3.3125 -3.75 3.078125 -3.796875 2.828125 -3.859375 C 2.328125 -3.96875 2.28125 -3.984375 2.15625 -4.03125 C 2.0625 -4.078125 1.96875 -4.140625 1.890625 -4.21875 C 1.734375 -4.375 1.65625 -4.546875 1.671875 -4.75 C 1.703125 -5.140625 1.9375 -5.375 2.390625 -5.453125 C 2.515625 -5.46875 2.890625 -5.46875 3.03125 -5.453125 C 3.484375 -5.390625 3.8125 -5.234375 4.140625 -4.890625 C 4.234375 -4.8125 4.265625 -4.78125 4.28125 -4.765625 C 4.328125 -4.765625 4.375 -4.796875 4.390625 -4.828125 C 4.421875 -4.859375 4.578125 -5.828125 4.578125 -5.875 L 4.5625 -5.921875 C 4.53125 -5.953125 4.296875 -6.0625 4.140625 -6.125 C 3.84375 -6.25 3.515625 -6.34375 3.203125 -6.375 C 3.078125 -6.390625 2.578125 -6.40625 2.453125 -6.390625 Z M 2.453125 -6.390625 "/>
</g>
<g id="glyph-3-1">
<path d="M 2.078125 -4.234375 C 1.625 -4.203125 1.28125 -4.125 0.90625 -3.96875 C 0.71875 -3.890625 0.671875 -3.859375 0.65625 -3.828125 C 0.640625 -3.796875 0.640625 -3.796875 0.671875 -3.4375 C 0.703125 -3.203125 0.71875 -3.0625 0.71875 -3.046875 C 0.734375 -3.015625 0.765625 -3 0.796875 -3 C 0.84375 -2.96875 0.859375 -3 0.9375 -3.0625 C 1.34375 -3.484375 1.734375 -3.640625 2.296875 -3.640625 C 2.453125 -3.640625 2.46875 -3.640625 2.53125 -3.625 C 2.6875 -3.578125 2.765625 -3.5 2.84375 -3.375 C 2.90625 -3.21875 2.9375 -3.078125 2.9375 -2.75 L 2.9375 -2.515625 L 2.703125 -2.515625 C 2.21875 -2.5 1.890625 -2.453125 1.5625 -2.375 C 1.078125 -2.25 0.796875 -2.125 0.578125 -1.90625 C 0.359375 -1.6875 0.265625 -1.4375 0.265625 -1.15625 C 0.296875 -0.46875 0.828125 0.0625 1.5 0.09375 C 2.0625 0.109375 2.609375 -0.140625 2.90625 -0.546875 L 2.953125 -0.609375 L 2.953125 -0.453125 C 2.953125 -0.296875 2.953125 -0.265625 2.96875 -0.21875 C 3 -0.125 3.078125 -0.046875 3.1875 -0.015625 C 3.265625 0.015625 3.859375 0.015625 3.921875 -0.015625 C 4.03125 -0.046875 4.109375 -0.125 4.140625 -0.21875 C 4.15625 -0.28125 4.15625 -0.328125 4.15625 -1.625 C 4.15625 -2.5 4.15625 -2.96875 4.140625 -3.03125 C 4.078125 -3.515625 3.859375 -3.859375 3.4375 -4.046875 C 3.234375 -4.140625 2.96875 -4.203125 2.65625 -4.234375 C 2.53125 -4.25 2.1875 -4.25 2.078125 -4.234375 Z M 2.9375 -1.671875 C 2.921875 -1.3125 2.921875 -1.171875 2.90625 -1.15625 C 2.859375 -0.984375 2.78125 -0.859375 2.65625 -0.765625 C 2.53125 -0.65625 2.375 -0.59375 2.203125 -0.5625 C 2.03125 -0.546875 1.90625 -0.546875 1.78125 -0.609375 C 1.71875 -0.640625 1.703125 -0.671875 1.640625 -0.734375 C 1.578125 -0.796875 1.5625 -0.828125 1.515625 -0.890625 C 1.46875 -1 1.453125 -1.0625 1.4375 -1.1875 C 1.4375 -1.453125 1.578125 -1.734375 1.84375 -1.890625 C 1.96875 -1.953125 2.1875 -2.03125 2.375 -2.078125 C 2.515625 -2.109375 2.765625 -2.140625 2.90625 -2.15625 L 2.9375 -2.15625 Z M 2.9375 -1.671875 "/>
</g>
<g id="glyph-3-2">
<path d="M 2.9375 -4.1875 C 2.421875 -4.109375 2 -3.8125 1.734375 -3.328125 L 1.703125 -3.265625 L 1.703125 -3.5625 C 1.703125 -3.828125 1.703125 -3.875 1.6875 -3.921875 C 1.640625 -4.03125 1.578125 -4.109375 1.46875 -4.125 C 1.421875 -4.140625 1.375 -4.140625 1.09375 -4.140625 L 0.78125 -4.140625 L 0.71875 -4.125 C 0.65625 -4.078125 0.59375 -4.015625 0.546875 -3.953125 L 0.53125 -3.90625 L 0.53125 -0.25 L 0.546875 -0.203125 C 0.59375 -0.125 0.65625 -0.0625 0.71875 -0.03125 L 0.78125 -0.015625 L 1.125 0 C 1.421875 0 1.46875 0 1.515625 -0.015625 C 1.625 -0.046875 1.703125 -0.109375 1.734375 -0.203125 C 1.75 -0.234375 1.75 -0.328125 1.75 -1.4375 C 1.765625 -2.75 1.75 -2.65625 1.8125 -2.828125 C 1.921875 -3.171875 2.1875 -3.421875 2.515625 -3.515625 C 2.59375 -3.546875 2.84375 -3.546875 2.9375 -3.515625 C 3.078125 -3.484375 3.140625 -3.4375 3.1875 -3.328125 C 3.265625 -3.1875 3.25 -3.28125 3.265625 -1.6875 L 3.265625 -0.25 L 3.28125 -0.203125 C 3.328125 -0.125 3.390625 -0.0625 3.453125 -0.03125 L 3.515625 -0.015625 L 3.859375 0 C 4.15625 0 4.203125 0 4.25 -0.015625 C 4.359375 -0.046875 4.4375 -0.109375 4.46875 -0.203125 C 4.484375 -0.234375 4.484375 -0.328125 4.484375 -1.4375 C 4.5 -2.75 4.484375 -2.65625 4.546875 -2.828125 C 4.65625 -3.171875 4.921875 -3.421875 5.25 -3.515625 C 5.328125 -3.546875 5.59375 -3.546875 5.671875 -3.515625 C 5.8125 -3.484375 5.875 -3.4375 5.921875 -3.328125 C 6 -3.1875 5.984375 -3.28125 6 -1.6875 L 6 -0.25 L 6.03125 -0.203125 C 6.0625 -0.125 6.125 -0.0625 6.1875 -0.03125 L 6.25 -0.015625 L 6.59375 0 C 6.890625 0 6.9375 0 6.984375 -0.015625 C 7.09375 -0.046875 7.171875 -0.109375 7.203125 -0.21875 C 7.21875 -0.28125 7.21875 -0.328125 7.21875 -1.65625 C 7.21875 -3.015625 7.21875 -3.140625 7.1875 -3.3125 C 7.109375 -3.75 6.875 -4.03125 6.453125 -4.140625 C 6.296875 -4.171875 6.1875 -4.1875 5.921875 -4.1875 C 5.6875 -4.1875 5.671875 -4.1875 5.5625 -4.171875 C 5.109375 -4.0625 4.75 -3.796875 4.5 -3.390625 L 4.453125 -3.3125 L 4.4375 -3.390625 C 4.390625 -3.609375 4.3125 -3.765625 4.15625 -3.90625 C 4 -4.046875 3.8125 -4.125 3.546875 -4.171875 C 3.421875 -4.1875 3.03125 -4.1875 2.9375 -4.1875 Z M 2.9375 -4.1875 "/>
</g>
<g id="glyph-3-3">
<path d="M 2.1875 -4.234375 C 1.453125 -4.1875 0.9375 -3.921875 0.609375 -3.4375 C 0.546875 -3.34375 0.46875 -3.15625 0.421875 -3.046875 C 0.296875 -2.71875 0.234375 -2.21875 0.28125 -1.828125 C 0.328125 -1.15625 0.5625 -0.671875 0.984375 -0.34375 C 1.34375 -0.0625 1.8125 0.078125 2.4375 0.09375 C 3 0.109375 3.484375 0 3.984375 -0.234375 C 4.171875 -0.34375 4.21875 -0.359375 4.234375 -0.40625 C 4.234375 -0.4375 4.1875 -1.03125 4.171875 -1.078125 C 4.15625 -1.125 4.078125 -1.15625 4.046875 -1.15625 C 4.015625 -1.140625 3.96875 -1.109375 3.921875 -1.0625 C 3.59375 -0.796875 3.25 -0.640625 2.84375 -0.578125 C 2.703125 -0.546875 2.40625 -0.546875 2.296875 -0.578125 C 2.109375 -0.609375 1.9375 -0.6875 1.8125 -0.78125 C 1.671875 -0.90625 1.5625 -1.125 1.5 -1.375 C 1.453125 -1.515625 1.421875 -1.765625 1.421875 -1.890625 L 1.421875 -1.90625 L 2.71875 -1.90625 C 3.875 -1.90625 4.015625 -1.90625 4.0625 -1.9375 C 4.171875 -1.953125 4.25 -2.03125 4.265625 -2.140625 C 4.3125 -2.265625 4.28125 -2.71875 4.203125 -3 C 4.125 -3.34375 3.953125 -3.640625 3.734375 -3.828125 C 3.5 -4.046875 3.1875 -4.171875 2.796875 -4.234375 C 2.6875 -4.234375 2.28125 -4.25 2.1875 -4.234375 Z M 2.5625 -3.578125 C 2.8125 -3.546875 3 -3.4375 3.09375 -3.25 C 3.203125 -3.078125 3.265625 -2.859375 3.28125 -2.484375 L 3.28125 -2.390625 L 1.4375 -2.390625 L 1.4375 -2.46875 C 1.46875 -2.828125 1.578125 -3.125 1.71875 -3.3125 C 1.90625 -3.515625 2.21875 -3.625 2.5625 -3.578125 Z M 2.5625 -3.578125 "/>
</g>
<g id="glyph-3-4">
<path d="M 1.96875 -6.296875 C 1.6875 -6.25 1.4375 -6.171875 1.265625 -6.046875 C 1.015625 -5.859375 0.859375 -5.609375 0.796875 -5.265625 C 0.765625 -5.078125 0.765625 -4.984375 0.765625 -4.515625 L 0.765625 -4.09375 L 0.640625 -4.09375 C 0.515625 -4.09375 0.5 -4.078125 0.453125 -4.0625 C 0.296875 -4 0.234375 -3.828125 0.28125 -3.671875 C 0.28125 -3.625 0.328125 -3.5625 0.359375 -3.515625 C 0.453125 -3.453125 0.515625 -3.4375 0.65625 -3.4375 L 0.765625 -3.4375 L 0.765625 -0.25 L 0.78125 -0.203125 C 0.828125 -0.125 0.890625 -0.0625 0.953125 -0.03125 L 1.015625 -0.015625 L 1.34375 0 C 1.625 0 1.6875 0 1.71875 -0.015625 C 1.828125 -0.046875 1.90625 -0.109375 1.9375 -0.21875 C 1.953125 -0.28125 1.953125 -0.328125 1.953125 -1.859375 L 1.953125 -3.4375 L 2.28125 -3.4375 C 2.5625 -3.4375 2.625 -3.4375 2.65625 -3.453125 C 2.765625 -3.484375 2.84375 -3.5625 2.875 -3.671875 C 2.921875 -3.84375 2.828125 -4.03125 2.65625 -4.078125 C 2.625 -4.09375 2.546875 -4.09375 2.265625 -4.09375 L 1.9375 -4.09375 L 1.9375 -4.71875 C 1.9375 -5.328125 1.9375 -5.34375 1.953125 -5.40625 C 2.015625 -5.609375 2.109375 -5.671875 2.3125 -5.640625 C 2.453125 -5.609375 2.578125 -5.53125 2.640625 -5.375 C 2.6875 -5.28125 2.71875 -5.25 2.78125 -5.25 C 2.8125 -5.25 2.828125 -5.265625 2.84375 -5.28125 L 2.890625 -5.3125 L 2.890625 -6.140625 L 2.859375 -6.171875 C 2.828125 -6.1875 2.703125 -6.234375 2.546875 -6.28125 C 2.453125 -6.296875 2.40625 -6.296875 2.25 -6.296875 C 2.140625 -6.296875 2.015625 -6.296875 1.96875 -6.296875 Z M 3.703125 -6.1875 C 3.609375 -6.171875 3.515625 -6.09375 3.5 -5.984375 C 3.484375 -5.9375 3.484375 -5.90625 3.484375 -5.609375 C 3.484375 -5.296875 3.484375 -5.265625 3.5 -5.203125 C 3.515625 -5.109375 3.609375 -5.03125 3.703125 -5 C 3.78125 -4.984375 4.390625 -4.984375 4.46875 -5 C 4.578125 -5.03125 4.65625 -5.109375 4.6875 -5.203125 C 4.703125 -5.265625 4.703125 -5.296875 4.703125 -5.609375 C 4.703125 -5.90625 4.703125 -5.9375 4.6875 -5.984375 C 4.65625 -6.09375 4.578125 -6.171875 4.46875 -6.1875 C 4.390625 -6.21875 3.765625 -6.21875 3.703125 -6.1875 Z M 3.734375 -4.078125 C 3.625 -4.046875 3.546875 -3.96875 3.515625 -3.875 C 3.5 -3.8125 3.5 -3.765625 3.5 -2.046875 C 3.5 -0.328125 3.5 -0.28125 3.515625 -0.21875 C 3.546875 -0.125 3.625 -0.046875 3.734375 -0.015625 C 3.796875 0.015625 4.390625 0.015625 4.453125 -0.015625 C 4.5625 -0.046875 4.640625 -0.125 4.671875 -0.21875 C 4.6875 -0.28125 4.6875 -0.328125 4.6875 -2.046875 C 4.6875 -3.765625 4.6875 -3.8125 4.671875 -3.875 C 4.640625 -3.96875 4.5625 -4.046875 4.453125 -4.078125 C 4.390625 -4.109375 3.796875 -4.109375 3.734375 -4.078125 Z M 3.734375 -4.078125 "/>
</g>
<g id="glyph-3-5">
<path d="M 2.9375 -4.1875 C 2.609375 -4.140625 2.328125 -4 2.078125 -3.78125 C 1.953125 -3.65625 1.828125 -3.5 1.734375 -3.328125 L 1.703125 -3.265625 L 1.703125 -3.5625 C 1.703125 -3.828125 1.703125 -3.875 1.6875 -3.921875 C 1.640625 -4.03125 1.578125 -4.109375 1.46875 -4.125 C 1.421875 -4.140625 1.375 -4.140625 1.09375 -4.140625 L 0.78125 -4.140625 L 0.71875 -4.125 C 0.65625 -4.078125 0.59375 -4.015625 0.546875 -3.953125 L 0.53125 -3.90625 L 0.53125 -0.25 L 0.546875 -0.203125 C 0.59375 -0.125 0.65625 -0.0625 0.71875 -0.03125 L 0.78125 -0.015625 L 1.125 0 C 1.421875 0 1.46875 0 1.515625 -0.015625 C 1.625 -0.046875 1.703125 -0.109375 1.734375 -0.21875 C 1.75 -0.28125 1.75 -0.328125 1.75 -1.40625 C 1.75 -2.140625 1.75 -2.5625 1.765625 -2.609375 C 1.8125 -3.0625 2.125 -3.421875 2.53125 -3.515625 C 2.609375 -3.546875 2.859375 -3.546875 2.9375 -3.515625 C 3.0625 -3.484375 3.140625 -3.421875 3.1875 -3.3125 C 3.25 -3.1875 3.25 -3.28125 3.25 -1.6875 C 3.25 -0.34375 3.265625 -0.234375 3.265625 -0.203125 C 3.3125 -0.109375 3.390625 -0.046875 3.484375 -0.015625 C 3.5625 0.015625 4.171875 0.015625 4.25 -0.015625 C 4.359375 -0.046875 4.4375 -0.125 4.453125 -0.21875 C 4.484375 -0.28125 4.484375 -0.328125 4.484375 -1.65625 C 4.484375 -2.53125 4.484375 -3.0625 4.46875 -3.140625 C 4.4375 -3.484375 4.34375 -3.734375 4.15625 -3.90625 C 4 -4.046875 3.796875 -4.140625 3.515625 -4.171875 C 3.421875 -4.1875 3.015625 -4.1875 2.9375 -4.1875 Z M 2.9375 -4.1875 "/>
</g>
<g id="glyph-3-6">
<path d="M 0.34375 -2.359375 C 0.234375 -2.328125 0.15625 -2.25 0.125 -2.15625 C 0.078125 -1.96875 0.15625 -1.78125 0.34375 -1.75 C 0.390625 -1.71875 0.5 -1.71875 1.421875 -1.71875 C 2.328125 -1.71875 2.453125 -1.71875 2.5 -1.75 C 2.59375 -1.765625 2.6875 -1.84375 2.703125 -1.953125 C 2.765625 -2.125 2.671875 -2.3125 2.5 -2.359375 C 2.453125 -2.375 2.328125 -2.375 1.40625 -2.375 C 0.515625 -2.375 0.375 -2.375 0.34375 -2.359375 Z M 0.34375 -2.359375 "/>
</g>
<g id="glyph-3-7">
<path d="M 1.046875 -5.25 C 0.953125 -5.21875 0.875 -5.15625 0.828125 -5.078125 L 0.8125 -5.015625 L 0.796875 -4.5625 L 0.796875 -4.09375 L 0.609375 -4.09375 C 0.421875 -4.09375 0.421875 -4.078125 0.375 -4.0625 C 0.21875 -4 0.15625 -3.828125 0.203125 -3.671875 C 0.203125 -3.625 0.25 -3.5625 0.28125 -3.515625 C 0.359375 -3.453125 0.421875 -3.4375 0.609375 -3.4375 L 0.78125 -3.4375 L 0.78125 -2.265625 C 0.78125 -1.5625 0.78125 -1.03125 0.78125 -0.96875 C 0.8125 -0.578125 0.90625 -0.3125 1.09375 -0.140625 C 1.1875 -0.046875 1.265625 0.015625 1.375 0.046875 C 1.5 0.09375 1.578125 0.09375 1.78125 0.09375 C 2.28125 0.078125 2.6875 -0.015625 3.140625 -0.234375 C 3.28125 -0.296875 3.328125 -0.34375 3.328125 -0.390625 C 3.328125 -0.40625 3.3125 -0.46875 3.28125 -0.640625 C 3.203125 -0.90625 3.203125 -0.921875 3.125 -0.921875 C 3.078125 -0.921875 3.078125 -0.921875 2.953125 -0.828125 C 2.859375 -0.765625 2.703125 -0.671875 2.578125 -0.65625 C 2.5 -0.625 2.375 -0.609375 2.28125 -0.609375 C 2.125 -0.609375 2.015625 -0.734375 1.96875 -1.015625 C 1.953125 -1.078125 1.953125 -1.25 1.953125 -2.265625 L 1.953125 -3.4375 L 2.421875 -3.4375 C 2.828125 -3.4375 2.890625 -3.4375 2.9375 -3.453125 C 3.046875 -3.484375 3.125 -3.5625 3.15625 -3.671875 C 3.203125 -3.84375 3.125 -4.03125 2.9375 -4.078125 C 2.890625 -4.09375 2.828125 -4.09375 2.421875 -4.09375 L 1.953125 -4.09375 L 1.953125 -4.546875 C 1.953125 -4.953125 1.953125 -4.984375 1.9375 -5.046875 C 1.90625 -5.140625 1.828125 -5.21875 1.71875 -5.25 C 1.6875 -5.265625 1.625 -5.265625 1.375 -5.265625 C 1.15625 -5.265625 1.0625 -5.265625 1.046875 -5.25 Z M 1.046875 -5.25 "/>
</g>
<g id="glyph-3-8">
<path d="M 0.765625 -4.078125 C 0.671875 -4.046875 0.59375 -3.984375 0.546875 -3.90625 L 0.53125 -3.859375 L 0.53125 -0.90625 L 0.546875 -0.78125 C 0.578125 -0.65625 0.625 -0.5 0.671875 -0.40625 C 0.734375 -0.328125 0.84375 -0.1875 0.921875 -0.140625 C 1.09375 -0.03125 1.28125 0.046875 1.546875 0.078125 C 1.640625 0.09375 1.71875 0.09375 1.953125 0.09375 C 2.21875 0.09375 2.25 0.09375 2.328125 0.078125 C 2.375 0.0625 2.453125 0.046875 2.5 0.03125 C 2.78125 -0.0625 3.046875 -0.28125 3.234375 -0.578125 L 3.28125 -0.65625 L 3.28125 -0.46875 C 3.28125 -0.296875 3.28125 -0.265625 3.296875 -0.21875 C 3.328125 -0.125 3.40625 -0.046875 3.515625 -0.015625 C 3.578125 0.015625 4.171875 0.015625 4.25 -0.015625 C 4.359375 -0.046875 4.4375 -0.125 4.453125 -0.21875 C 4.484375 -0.28125 4.484375 -0.328125 4.484375 -2.046875 C 4.484375 -3.765625 4.484375 -3.8125 4.453125 -3.875 C 4.4375 -3.96875 4.359375 -4.046875 4.25 -4.078125 C 4.171875 -4.109375 3.5625 -4.109375 3.484375 -4.078125 C 3.390625 -4.046875 3.3125 -3.984375 3.265625 -3.890625 C 3.265625 -3.859375 3.25 -3.765625 3.25 -2.59375 C 3.25 -1.34375 3.25 -1.328125 3.21875 -1.25 C 3.1875 -1.09375 3.140625 -0.96875 3.0625 -0.84375 C 3.015625 -0.765625 2.890625 -0.65625 2.8125 -0.59375 C 2.65625 -0.484375 2.515625 -0.453125 2.3125 -0.453125 C 1.953125 -0.453125 1.828125 -0.515625 1.78125 -0.703125 C 1.75 -0.8125 1.75 -0.96875 1.75 -2.375 C 1.75 -3.765625 1.75 -3.8125 1.734375 -3.875 C 1.703125 -3.96875 1.625 -4.046875 1.515625 -4.078125 C 1.46875 -4.09375 1.421875 -4.09375 1.140625 -4.09375 C 0.890625 -4.09375 0.78125 -4.09375 0.765625 -4.078125 Z M 0.765625 -4.078125 "/>
</g>
<g id="glyph-3-9">
<path d="M 0.84375 -1.171875 C 0.828125 -1.171875 0.8125 -1.15625 0.796875 -1.140625 L 0.78125 -1.125 L 0.78125 -0.0625 L 0.8125 -0.03125 L 0.84375 -0.015625 L 0.96875 0 C 1.03125 0 1.078125 0 1.078125 0.015625 C 1.078125 0.015625 1.015625 0.1875 0.921875 0.40625 C 0.828125 0.671875 0.78125 0.828125 0.78125 0.84375 C 0.78125 0.875 0.796875 0.921875 0.828125 0.9375 C 0.859375 0.953125 1.265625 0.953125 1.3125 0.9375 C 1.328125 0.921875 1.40625 0.796875 1.640625 0.421875 L 1.953125 -0.078125 L 1.953125 -1.125 L 1.921875 -1.140625 L 1.890625 -1.1875 L 1.375 -1.1875 C 1.09375 -1.1875 0.859375 -1.1875 0.84375 -1.171875 Z M 0.84375 -1.171875 "/>
</g>
<g id="glyph-3-10">
<path d="M 0.390625 -4.078125 C 0.28125 -4.046875 0.203125 -3.921875 0.21875 -3.8125 C 0.21875 -3.796875 0.4375 -3 0.703125 -2.046875 C 1.0625 -0.75 1.203125 -0.296875 1.21875 -0.234375 C 1.28125 -0.140625 1.375 -0.046875 1.515625 -0.015625 C 1.578125 0.015625 2.140625 0.015625 2.203125 -0.015625 C 2.328125 -0.046875 2.4375 -0.140625 2.5 -0.234375 C 2.515625 -0.265625 2.5625 -0.421875 2.625 -0.640625 C 2.953125 -1.828125 3.09375 -2.5 3.140625 -2.796875 L 3.140625 -2.875 L 3.140625 -2.8125 C 3.1875 -2.515625 3.3125 -1.921875 3.578125 -0.96875 C 3.796875 -0.203125 3.78125 -0.21875 3.875 -0.125 C 3.9375 -0.078125 4.015625 -0.03125 4.09375 -0.015625 C 4.125 0 4.296875 0 4.609375 0 C 5.125 0 5.140625 0 5.234375 -0.046875 C 5.3125 -0.09375 5.390625 -0.171875 5.421875 -0.234375 C 5.4375 -0.28125 5.609375 -0.875 5.9375 -2.046875 C 6.46875 -3.9375 6.4375 -3.859375 6.40625 -3.9375 C 6.375 -4 6.328125 -4.046875 6.28125 -4.0625 C 6.25 -4.078125 6.234375 -4.09375 5.984375 -4.09375 C 5.6875 -4.09375 5.671875 -4.09375 5.5625 -4.046875 C 5.484375 -4 5.421875 -3.9375 5.375 -3.859375 C 5.359375 -3.8125 5.25 -3.453125 4.96875 -2.40625 L 4.578125 -1.03125 L 4.203125 -2.40625 C 3.984375 -3.15625 3.796875 -3.8125 3.796875 -3.84375 C 3.734375 -3.953125 3.625 -4.046875 3.5 -4.078125 C 3.421875 -4.109375 3.15625 -4.109375 3.078125 -4.078125 C 2.96875 -4.046875 2.84375 -3.953125 2.8125 -3.859375 C 2.78125 -3.828125 2.625 -3.203125 2.40625 -2.5 C 2.21875 -1.765625 2.046875 -1.1875 2.046875 -1.1875 C 2.046875 -1.1875 1.875 -1.78125 1.6875 -2.5 C 1.421875 -3.421875 1.3125 -3.828125 1.28125 -3.859375 C 1.234375 -3.953125 1.125 -4.046875 1 -4.078125 C 0.921875 -4.109375 0.453125 -4.109375 0.390625 -4.078125 Z M 0.390625 -4.078125 "/>
</g>
<g id="glyph-3-11">
<path d="M 2.171875 -4.234375 C 1.5 -4.1875 1 -3.953125 0.6875 -3.546875 C 0.40625 -3.171875 0.265625 -2.65625 0.265625 -2 C 0.265625 -0.78125 0.828125 -0.09375 1.921875 0.0625 C 2.15625 0.09375 2.46875 0.109375 2.734375 0.09375 C 3.921875 0.015625 4.546875 -0.59375 4.625 -1.75 C 4.640625 -1.890625 4.640625 -2.125 4.625 -2.28125 C 4.5625 -3.28125 4.125 -3.890625 3.3125 -4.125 C 3 -4.234375 2.5625 -4.265625 2.171875 -4.234375 Z M 2.71875 -3.5625 C 2.890625 -3.53125 3.015625 -3.46875 3.125 -3.375 C 3.296875 -3.203125 3.375 -2.96875 3.40625 -2.53125 C 3.421875 -2.3125 3.421875 -1.6875 3.390625 -1.515625 C 3.328125 -1.078125 3.203125 -0.84375 2.953125 -0.71875 C 2.796875 -0.640625 2.65625 -0.609375 2.453125 -0.609375 C 2.28125 -0.609375 2.21875 -0.625 2.09375 -0.65625 C 1.796875 -0.75 1.625 -0.953125 1.5625 -1.296875 C 1.515625 -1.484375 1.5 -1.609375 1.5 -2.015625 C 1.484375 -2.625 1.515625 -2.890625 1.609375 -3.125 C 1.71875 -3.390625 1.9375 -3.546875 2.28125 -3.578125 C 2.390625 -3.59375 2.625 -3.578125 2.71875 -3.5625 Z M 2.71875 -3.5625 "/>
</g>
<g id="glyph-3-12">
<path d="M 0.40625 -4.078125 C 0.359375 -4.0625 0.296875 -4.015625 0.265625 -3.984375 C 0.234375 -3.9375 0.234375 -3.921875 0.234375 -3.875 C 0.234375 -3.8125 0.234375 -3.796875 0.796875 -2.046875 C 1.125 -1.078125 1.375 -0.265625 1.390625 -0.25 C 1.4375 -0.171875 1.53125 -0.078125 1.59375 -0.046875 C 1.703125 0 1.703125 0 2.21875 0 C 2.75 0 2.765625 0 2.875 -0.046875 C 2.9375 -0.078125 3.03125 -0.171875 3.0625 -0.25 C 3.078125 -0.265625 3.34375 -1.078125 3.65625 -2.046875 C 4.234375 -3.796875 4.234375 -3.8125 4.234375 -3.875 C 4.234375 -3.921875 4.21875 -3.9375 4.1875 -3.984375 C 4.171875 -4.015625 4.109375 -4.0625 4.046875 -4.078125 C 4 -4.109375 3.546875 -4.09375 3.46875 -4.078125 C 3.34375 -4.046875 3.21875 -3.953125 3.15625 -3.84375 C 3.15625 -3.8125 2.9375 -3.171875 2.6875 -2.40625 C 2.453125 -1.65625 2.25 -1.03125 2.25 -1.03125 C 2.25 -1.03125 2.03125 -1.65625 1.78125 -2.421875 C 1.515625 -3.296875 1.328125 -3.828125 1.3125 -3.859375 C 1.25 -3.96875 1.125 -4.0625 1 -4.078125 C 0.953125 -4.09375 0.453125 -4.09375 0.40625 -4.078125 Z M 0.40625 -4.078125 "/>
</g>
<g id="glyph-3-13">
<path d="M 2.9375 -4.1875 C 2.765625 -4.171875 2.625 -4.125 2.484375 -4.046875 C 2.171875 -3.890625 1.90625 -3.609375 1.734375 -3.21875 L 1.6875 -3.140625 L 1.6875 -3.5 C 1.6875 -3.828125 1.6875 -3.875 1.671875 -3.921875 C 1.640625 -4.03125 1.5625 -4.109375 1.453125 -4.125 C 1.40625 -4.140625 1.359375 -4.140625 1.09375 -4.140625 L 0.78125 -4.140625 L 0.734375 -4.125 C 0.65625 -4.078125 0.59375 -4.015625 0.5625 -3.953125 L 0.546875 -3.90625 L 0.546875 -0.25 L 0.5625 -0.203125 C 0.59375 -0.125 0.65625 -0.0625 0.71875 -0.03125 L 0.78125 -0.015625 L 1.125 0 C 1.40625 0 1.453125 0 1.5 -0.015625 C 1.609375 -0.046875 1.6875 -0.109375 1.71875 -0.21875 C 1.734375 -0.28125 1.734375 -0.328125 1.734375 -1.234375 C 1.734375 -2.28125 1.734375 -2.28125 1.78125 -2.453125 C 1.90625 -2.8125 2.21875 -3.09375 2.640625 -3.21875 C 2.75 -3.25 2.875 -3.265625 3.015625 -3.28125 C 3.125 -3.28125 3.125 -3.28125 3.140625 -3.3125 L 3.1875 -3.34375 L 3.1875 -4.125 L 3.140625 -4.15625 C 3.125 -4.1875 3.125 -4.1875 3.03125 -4.1875 C 3 -4.1875 2.953125 -4.1875 2.9375 -4.1875 Z M 2.9375 -4.1875 "/>
</g>
<g id="glyph-3-14">
<path d="M 0.421875 -4.078125 C 0.328125 -4.046875 0.234375 -3.9375 0.265625 -3.828125 C 0.265625 -3.8125 0.65625 -2.9375 1.140625 -1.890625 L 1.984375 0 L 1.890625 0.296875 C 1.75 0.671875 1.71875 0.765625 1.578125 0.890625 C 1.5 0.953125 1.421875 1 1.328125 1.03125 C 1.265625 1.046875 1.25 1.046875 1.125 1.046875 C 0.90625 1.046875 0.703125 1 0.515625 0.875 C 0.453125 0.828125 0.359375 0.84375 0.328125 0.90625 C 0.328125 0.9375 0.328125 0.953125 0.34375 1.3125 C 0.359375 1.515625 0.390625 1.6875 0.390625 1.703125 C 0.40625 1.75 0.453125 1.75 0.546875 1.765625 C 0.765625 1.8125 0.875 1.828125 1.109375 1.828125 C 1.34375 1.828125 1.40625 1.8125 1.59375 1.75 C 2.078125 1.59375 2.46875 1.1875 2.6875 0.65625 C 2.75 0.515625 4.21875 -3.796875 4.234375 -3.828125 C 4.234375 -3.921875 4.171875 -4.015625 4.09375 -4.0625 C 4.0625 -4.078125 4.046875 -4.09375 3.796875 -4.09375 C 3.5 -4.09375 3.453125 -4.09375 3.359375 -4.046875 C 3.296875 -4.015625 3.203125 -3.921875 3.171875 -3.859375 C 3.140625 -3.796875 2.828125 -2.828125 2.703125 -2.453125 C 2.515625 -1.84375 2.40625 -1.4375 2.40625 -1.265625 C 2.40625 -1.265625 2.40625 -1.21875 2.40625 -1.21875 C 2.40625 -1.21875 2.390625 -1.265625 2.390625 -1.265625 C 2.390625 -1.28125 2.375 -1.34375 2.375 -1.390625 C 2.328125 -1.59375 2.203125 -2 2.015625 -2.4375 C 1.828125 -2.9375 1.453125 -3.765625 1.390625 -3.859375 C 1.34375 -3.921875 1.265625 -4 1.1875 -4.03125 C 1.078125 -4.078125 1.03125 -4.09375 0.71875 -4.09375 C 0.578125 -4.09375 0.4375 -4.078125 0.421875 -4.078125 Z M 0.421875 -4.078125 "/>
</g>
<g id="glyph-3-15">
<path d="M 3.5 -6.1875 C 3.390625 -6.15625 3.3125 -6.078125 3.28125 -5.984375 C 3.265625 -5.921875 3.265625 -5.875 3.265625 -4.828125 L 3.265625 -3.75 L 3.1875 -3.8125 C 2.78125 -4.15625 2.28125 -4.265625 1.703125 -4.140625 C 1.34375 -4.078125 1.078125 -3.9375 0.859375 -3.734375 C 0.734375 -3.609375 0.65625 -3.5 0.59375 -3.34375 C 0.46875 -3.09375 0.390625 -2.84375 0.34375 -2.515625 C 0.328125 -2.34375 0.328125 -1.78125 0.34375 -1.625 C 0.40625 -1.03125 0.578125 -0.65625 0.859375 -0.359375 C 1.078125 -0.140625 1.328125 -0.015625 1.671875 0.046875 C 2.171875 0.15625 2.59375 0.09375 2.953125 -0.15625 C 3.03125 -0.21875 3.203125 -0.359375 3.21875 -0.40625 C 3.25 -0.421875 3.25 -0.421875 3.25 -0.34375 C 3.25 -0.171875 3.328125 -0.0625 3.484375 -0.015625 C 3.546875 0.015625 4.171875 0.015625 4.234375 -0.015625 C 4.34375 -0.046875 4.421875 -0.125 4.453125 -0.21875 C 4.46875 -0.28125 4.46875 -0.34375 4.46875 -3.09375 C 4.46875 -5.859375 4.46875 -5.921875 4.453125 -5.984375 C 4.421875 -6.078125 4.34375 -6.15625 4.234375 -6.1875 C 4.171875 -6.21875 3.5625 -6.21875 3.5 -6.1875 Z M 2.796875 -3.515625 C 2.9375 -3.484375 3.109375 -3.390625 3.203125 -3.28125 L 3.25 -3.265625 L 3.25 -0.953125 L 3.171875 -0.875 C 2.96875 -0.671875 2.71875 -0.546875 2.453125 -0.546875 C 2.1875 -0.546875 1.921875 -0.65625 1.78125 -0.828125 C 1.65625 -0.984375 1.59375 -1.21875 1.5625 -1.625 C 1.5625 -1.796875 1.5625 -2.296875 1.5625 -2.46875 C 1.59375 -2.859375 1.671875 -3.09375 1.828125 -3.265625 C 1.9375 -3.40625 2.15625 -3.5 2.390625 -3.53125 C 2.5 -3.546875 2.703125 -3.53125 2.796875 -3.515625 Z M 2.796875 -3.515625 "/>
</g>
<g id="glyph-3-16">
<path d="M 0.71875 -6.203125 C 0.625 -6.1875 0.546875 -6.125 0.515625 -6.046875 L 0.484375 -5.984375 L 0.46875 -5.625 C 0.46875 -5.265625 0.46875 -5.25 0.484375 -5.203125 C 0.515625 -5.125 0.578125 -5.0625 0.65625 -5.03125 L 0.703125 -5 L 1.5625 -5 L 1.609375 -5.03125 C 1.6875 -5.0625 1.75 -5.125 1.765625 -5.203125 C 1.78125 -5.25 1.796875 -5.265625 1.796875 -5.609375 C 1.796875 -5.9375 1.78125 -5.953125 1.765625 -6 C 1.75 -6.078125 1.6875 -6.140625 1.609375 -6.171875 L 1.5625 -6.21875 L 1.15625 -6.21875 C 0.921875 -6.21875 0.734375 -6.203125 0.71875 -6.203125 Z M 0.78125 -4.078125 C 0.671875 -4.046875 0.609375 -3.984375 0.5625 -3.90625 L 0.546875 -3.859375 L 0.546875 -0.25 L 0.5625 -0.203125 C 0.59375 -0.125 0.65625 -0.0625 0.71875 -0.03125 L 0.78125 -0.015625 L 1.125 0 C 1.40625 0 1.453125 0 1.5 -0.015625 C 1.609375 -0.046875 1.6875 -0.109375 1.71875 -0.21875 C 1.734375 -0.28125 1.734375 -0.328125 1.734375 -2.046875 C 1.734375 -3.765625 1.734375 -3.8125 1.71875 -3.875 C 1.6875 -3.96875 1.609375 -4.046875 1.5 -4.078125 C 1.46875 -4.09375 1.40625 -4.09375 1.140625 -4.09375 C 0.890625 -4.09375 0.796875 -4.09375 0.78125 -4.078125 Z M 0.78125 -4.078125 "/>
</g>
<g id="glyph-3-17">
<path d="M 2.21875 -6.296875 C 2 -6.28125 1.765625 -6.21875 1.609375 -6.15625 C 1.40625 -6.09375 1.28125 -6 1.15625 -5.859375 C 0.96875 -5.6875 0.859375 -5.484375 0.8125 -5.203125 C 0.78125 -5.046875 0.765625 -4.953125 0.765625 -4.5 L 0.765625 -4.09375 L 0.640625 -4.09375 C 0.53125 -4.09375 0.515625 -4.078125 0.46875 -4.0625 C 0.3125 -4 0.234375 -3.828125 0.28125 -3.671875 C 0.296875 -3.625 0.34375 -3.5625 0.375 -3.515625 C 0.453125 -3.453125 0.515625 -3.4375 0.65625 -3.4375 L 0.765625 -3.4375 L 0.765625 -1.84375 L 0.78125 -0.25 L 0.796875 -0.203125 C 0.828125 -0.125 0.890625 -0.0625 0.953125 -0.03125 L 1.015625 -0.015625 L 1.34375 0 C 1.640625 0 1.6875 0 1.734375 -0.015625 C 1.84375 -0.046875 1.90625 -0.109375 1.953125 -0.21875 C 1.96875 -0.28125 1.96875 -0.328125 1.96875 -1.859375 L 1.96875 -3.4375 L 2.25 -3.4375 C 2.5 -3.4375 2.5625 -3.4375 2.59375 -3.453125 C 2.703125 -3.484375 2.78125 -3.5625 2.8125 -3.671875 C 2.859375 -3.84375 2.765625 -4.03125 2.59375 -4.078125 C 2.5625 -4.09375 2.5 -4.09375 2.25 -4.09375 L 1.9375 -4.09375 L 1.9375 -4.6875 C 1.953125 -5.1875 1.953125 -5.265625 1.953125 -5.3125 C 2.015625 -5.484375 2.09375 -5.578125 2.28125 -5.625 C 2.34375 -5.640625 2.375 -5.640625 2.53125 -5.640625 C 2.6875 -5.640625 2.703125 -5.640625 2.78125 -5.625 C 2.875 -5.59375 2.96875 -5.546875 3.03125 -5.5 C 3.0625 -5.484375 3.125 -5.4375 3.15625 -5.390625 C 3.21875 -5.328125 3.265625 -5.3125 3.28125 -5.296875 C 3.328125 -5.296875 3.375 -5.3125 3.390625 -5.359375 C 3.421875 -5.375 3.421875 -5.390625 3.421875 -5.765625 L 3.421875 -6.140625 L 3.390625 -6.171875 C 3.359375 -6.1875 3.34375 -6.1875 3.265625 -6.21875 C 2.984375 -6.28125 2.875 -6.296875 2.578125 -6.296875 C 2.4375 -6.296875 2.28125 -6.296875 2.21875 -6.296875 Z M 4.953125 -6.296875 C 4.578125 -6.25 4.296875 -6.171875 4.0625 -6.015625 C 3.953125 -5.953125 3.796875 -5.78125 3.734375 -5.6875 C 3.609375 -5.5 3.53125 -5.265625 3.5 -5.015625 C 3.5 -4.953125 3.5 -4.171875 3.5 -2.59375 C 3.5 -0.34375 3.5 -0.28125 3.515625 -0.21875 C 3.546875 -0.125 3.625 -0.046875 3.734375 -0.015625 C 3.796875 0.015625 4.390625 0.015625 4.453125 -0.015625 C 4.5625 -0.046875 4.640625 -0.125 4.671875 -0.21875 C 4.6875 -0.28125 4.6875 -0.328125 4.6875 -1.859375 L 4.6875 -3.4375 L 4.984375 -3.4375 C 5.21875 -3.4375 5.28125 -3.4375 5.3125 -3.453125 C 5.421875 -3.484375 5.5 -3.5625 5.53125 -3.671875 C 5.59375 -3.84375 5.5 -4.03125 5.3125 -4.078125 C 5.28125 -4.09375 5.21875 -4.09375 4.96875 -4.09375 L 4.671875 -4.09375 L 4.671875 -4.6875 C 4.671875 -5.1875 4.671875 -5.265625 4.6875 -5.3125 C 4.734375 -5.484375 4.828125 -5.578125 5.015625 -5.625 C 5.0625 -5.640625 5.109375 -5.640625 5.25 -5.640625 C 5.40625 -5.640625 5.421875 -5.640625 5.5 -5.625 C 5.59375 -5.59375 5.6875 -5.546875 5.765625 -5.5 C 5.78125 -5.484375 5.84375 -5.4375 5.890625 -5.390625 C 5.953125 -5.328125 5.984375 -5.3125 6 -5.296875 C 6.046875 -5.296875 6.09375 -5.3125 6.125 -5.359375 C 6.140625 -5.375 6.140625 -5.390625 6.140625 -5.765625 L 6.140625 -6.140625 L 6.109375 -6.171875 C 6.09375 -6.1875 6.0625 -6.1875 5.984375 -6.21875 C 5.71875 -6.28125 5.609375 -6.296875 5.296875 -6.296875 C 5.15625 -6.296875 5 -6.296875 4.953125 -6.296875 Z M 4.953125 -6.296875 "/>
</g>
<g id="glyph-3-18">
<path d="M 2.1875 -4.234375 C 1.765625 -4.203125 1.390625 -4.078125 1.125 -3.890625 C 1 -3.828125 0.84375 -3.671875 0.75 -3.5625 C 0.453125 -3.1875 0.3125 -2.640625 0.328125 -1.953125 C 0.34375 -1.515625 0.40625 -1.1875 0.5625 -0.890625 C 0.625 -0.734375 0.6875 -0.65625 0.78125 -0.53125 C 1.078125 -0.1875 1.515625 0.015625 2.09375 0.078125 C 2.234375 0.09375 2.6875 0.09375 2.8125 0.078125 C 3.21875 0.03125 3.5625 -0.078125 3.90625 -0.25 C 4.046875 -0.328125 4.078125 -0.34375 4.09375 -0.390625 C 4.09375 -0.40625 4.046875 -1.078125 4.03125 -1.125 C 4.015625 -1.140625 3.984375 -1.1875 3.9375 -1.1875 C 3.890625 -1.1875 3.890625 -1.1875 3.765625 -1.078125 C 3.40625 -0.78125 3.015625 -0.625 2.546875 -0.609375 C 2.328125 -0.59375 2.171875 -0.640625 2.015625 -0.71875 C 1.84375 -0.796875 1.734375 -0.953125 1.65625 -1.171875 C 1.578125 -1.375 1.5625 -1.53125 1.5625 -1.96875 C 1.546875 -2.53125 1.578125 -2.8125 1.6875 -3.03125 C 1.75 -3.1875 1.8125 -3.28125 1.90625 -3.375 C 2.109375 -3.515625 2.328125 -3.5625 2.71875 -3.53125 C 3.09375 -3.5 3.328125 -3.40625 3.671875 -3.09375 C 3.765625 -3.015625 3.796875 -3.015625 3.859375 -3.03125 C 3.875 -3.046875 3.890625 -3.0625 3.890625 -3.078125 C 3.921875 -3.09375 4.03125 -3.765625 4.03125 -3.8125 C 4.015625 -3.84375 3.984375 -3.875 3.828125 -3.953125 C 3.421875 -4.140625 3.1875 -4.203125 2.8125 -4.234375 C 2.640625 -4.25 2.3125 -4.25 2.1875 -4.234375 Z M 2.1875 -4.234375 "/>
</g>
<g id="glyph-3-19">
<path d="M 1.625 -4.234375 C 1.046875 -4.1875 0.671875 -3.984375 0.484375 -3.625 C 0.390625 -3.453125 0.34375 -3.25 0.328125 -3.015625 C 0.328125 -2.875 0.34375 -2.78125 0.375 -2.640625 C 0.40625 -2.53125 0.484375 -2.375 0.546875 -2.265625 C 0.734375 -2.015625 1.046875 -1.8125 1.40625 -1.703125 C 1.453125 -1.703125 1.65625 -1.65625 1.84375 -1.625 C 2.203125 -1.546875 2.265625 -1.53125 2.375 -1.46875 C 2.59375 -1.359375 2.6875 -1.1875 2.640625 -0.96875 C 2.625 -0.9375 2.609375 -0.890625 2.59375 -0.859375 C 2.515625 -0.6875 2.3125 -0.609375 1.953125 -0.609375 C 1.4375 -0.609375 0.953125 -0.828125 0.640625 -1.21875 C 0.59375 -1.265625 0.578125 -1.28125 0.546875 -1.296875 C 0.484375 -1.3125 0.421875 -1.28125 0.40625 -1.234375 C 0.390625 -1.171875 0.265625 -0.421875 0.265625 -0.390625 C 0.28125 -0.359375 0.3125 -0.328125 0.421875 -0.28125 C 0.765625 -0.09375 1.140625 0.015625 1.5625 0.078125 C 1.71875 0.09375 2.1875 0.09375 2.34375 0.078125 C 2.734375 0.03125 2.96875 -0.078125 3.1875 -0.28125 C 3.3125 -0.40625 3.421875 -0.5625 3.46875 -0.75 C 3.546875 -1 3.5625 -1.328125 3.515625 -1.546875 C 3.421875 -1.9375 3.140625 -2.265625 2.734375 -2.46875 C 2.546875 -2.5625 2.453125 -2.59375 2.015625 -2.6875 C 1.828125 -2.71875 1.640625 -2.75 1.59375 -2.765625 C 1.4375 -2.8125 1.3125 -2.921875 1.25 -3.03125 C 1.234375 -3.078125 1.234375 -3.09375 1.234375 -3.1875 C 1.234375 -3.28125 1.25 -3.359375 1.296875 -3.421875 C 1.34375 -3.5 1.453125 -3.5625 1.59375 -3.578125 C 1.703125 -3.609375 2.015625 -3.609375 2.15625 -3.578125 C 2.5 -3.53125 2.75 -3.40625 3.03125 -3.15625 C 3.109375 -3.078125 3.140625 -3.078125 3.203125 -3.09375 C 3.21875 -3.109375 3.234375 -3.125 3.25 -3.140625 C 3.265625 -3.15625 3.375 -3.828125 3.375 -3.875 C 3.375 -3.90625 3.328125 -3.9375 3.21875 -3.984375 C 2.875 -4.125 2.578125 -4.203125 2.21875 -4.234375 C 2.078125 -4.25 1.765625 -4.25 1.625 -4.234375 Z M 1.625 -4.234375 "/>
</g>
</g>
</defs>
<path fill="none" stroke-width="0.49814" stroke-linecap="butt" stroke-linejoin="miter" stroke="rgb(13.331604%, 13.331604%, 13.331604%)" stroke-opacity="0.15" stroke-dasharray="2.98883 2.98883" stroke-miterlimit="10" d="M -8.503391 35.434597 L 263.624743 35.434597 " transform="matrix(0.996787, 0, 0, -0.996787, 41.866698, 173.723105)"/>
<path fill="none" stroke-width="0.49814" stroke-linecap="butt" stroke-linejoin="miter" stroke="rgb(13.331604%, 13.331604%, 13.331604%)" stroke-opacity="0.15" stroke-dasharray="2.98883 2.98883" stroke-miterlimit="10" d="M -8.503391 70.868744 L 263.624743 70.868744 " transform="matrix(0.996787, 0, 0, -0.996787, 41.866698, 173.723105)"/>
<path fill="none" stroke-width="0.49814" stroke-linecap="butt" stroke-linejoin="miter" stroke="rgb(13.331604%, 13.331604%, 13.331604%)" stroke-opacity="0.15" stroke-dasharray="2.98883 2.98883" stroke-miterlimit="10" d="M -8.503391 106.298972 L 263.624743 106.298972 " transform="matrix(0.996787, 0, 0, -0.996787, 41.866698, 173.723105)"/>
<path fill="none" stroke-width="0.49814" stroke-linecap="butt" stroke-linejoin="miter" stroke="rgb(13.331604%, 13.331604%, 13.331604%)" stroke-opacity="0.15" stroke-dasharray="2.98883 2.98883" stroke-miterlimit="10" d="M -8.503391 141.733119 L 263.624743 141.733119 " transform="matrix(0.996787, 0, 0, -0.996787, 41.866698, 173.723105)"/>
<path fill="none" stroke-width="0.99628" stroke-linecap="butt" stroke-linejoin="miter" stroke="rgb(13.331604%, 13.331604%, 13.331604%)" stroke-opacity="1" stroke-miterlimit="10" d="M 0.000490743 0.000450536 L 0.000490743 150.237001 " transform="matrix(0.996787, 0, 0, -0.996787, 41.866698, 173.723105)"/>
<path fill="none" stroke-width="0.99628" stroke-linecap="butt" stroke-linejoin="miter" stroke="rgb(13.331604%, 13.331604%, 13.331604%)" stroke-opacity="1" stroke-miterlimit="10" d="M -8.503391 0.000450536 L 263.624743 0.000450536 " transform="matrix(0.996787, 0, 0, -0.996787, 41.866698, 173.723105)"/>
<g fill="rgb(13.331604%, 13.331604%, 13.331604%)" fill-opacity="1">
<use xlink:href="#glyph-0-0" x="20.022102" y="175.446551"/>
<use xlink:href="#glyph-0-1" x="22.660164" y="175.446551"/>
</g>
<g fill="rgb(13.331604%, 13.331604%, 13.331604%)" fill-opacity="1">
<use xlink:href="#glyph-0-2" x="17.384602" y="140.127381"/>
<use xlink:href="#glyph-0-3" x="20.022664" y="140.127381"/>
<use xlink:href="#glyph-0-1" x="22.660727" y="140.127381"/>
</g>
<g fill="rgb(13.331604%, 13.331604%, 13.331604%)" fill-opacity="1">
<use xlink:href="#glyph-0-3" x="17.384602" y="104.808212"/>
<use xlink:href="#glyph-0-0" x="20.022664" y="104.808212"/>
<use xlink:href="#glyph-0-1" x="22.660727" y="104.808212"/>
</g>
<g fill="rgb(13.331604%, 13.331604%, 13.331604%)" fill-opacity="1">
<use xlink:href="#glyph-0-4" x="17.384602" y="69.489043"/>
<use xlink:href="#glyph-0-3" x="20.022664" y="69.489043"/>
<use xlink:href="#glyph-0-1" x="22.660727" y="69.489043"/>
</g>
<g fill="rgb(13.331604%, 13.331604%, 13.331604%)" fill-opacity="1">
<use xlink:href="#glyph-0-5" x="14.747102" y="34.169873"/>
<use xlink:href="#glyph-0-0" x="17.385165" y="34.169873"/>
<use xlink:href="#glyph-0-0" x="20.023227" y="34.169873"/>
<use xlink:href="#glyph-0-1" x="22.66129" y="34.169873"/>
</g>
<g fill="rgb(13.331604%, 13.331604%, 13.331604%)" fill-opacity="1">
<use xlink:href="#glyph-1-0" x="11.097864" y="122.974663"/>
<use xlink:href="#glyph-1-1" x="11.097864" y="120.63005"/>
<use xlink:href="#glyph-1-2" x="11.097864" y="118.19904"/>
<use xlink:href="#glyph-1-3" x="11.097864" y="115.664753"/>
<use xlink:href="#glyph-1-4" x="11.097864" y="113.320139"/>
<use xlink:href="#glyph-1-5" x="11.097864" y="111.414955"/>
<use xlink:href="#glyph-1-6" x="11.097864" y="109.656246"/>
<use xlink:href="#glyph-1-2" x="11.097864" y="105.466528"/>
<use xlink:href="#glyph-1-4" x="11.097864" y="102.932241"/>
<use xlink:href="#glyph-1-3" x="11.097864" y="101.027056"/>
<use xlink:href="#glyph-1-7" x="11.097864" y="98.682443"/>
</g>
<g fill="rgb(13.331604%, 13.331604%, 13.331604%)" fill-opacity="1">
<use xlink:href="#glyph-1-8" x="11.097864" y="94.200766"/>
<use xlink:href="#glyph-1-3" x="11.097864" y="92.1784"/>
<use xlink:href="#glyph-1-9" x="11.097864" y="89.833787"/>
</g>
<g fill="rgb(13.331604%, 13.331604%, 13.331604%)" fill-opacity="1">
<use xlink:href="#glyph-1-10" x="11.097864" y="87.339718"/>
<use xlink:href="#glyph-1-0" x="11.097864" y="85.537811"/>
</g>
<path fill="none" stroke-width="2.98883" stroke-linecap="round" stroke-linejoin="miter" stroke="rgb(4.31366%, 32.548523%, 58.036804%)" stroke-opacity="1" stroke-miterlimit="10" d="M 29.764077 0.568682 L 52.442401 0.568682 " transform="matrix(0.996787, 0, 0, -0.996787, 41.866698, 173.723105)"/>
<path fill-rule="nonzero" fill="rgb(4.31366%, 32.548523%, 58.036804%)" fill-opacity="1" stroke-width="0.3985" stroke-linecap="butt" stroke-linejoin="miter" stroke="rgb(4.31366%, 32.548523%, 58.036804%)" stroke-opacity="1" stroke-miterlimit="10" d="M 62.360984 0.000450536 L 62.360984 115.159468 L 87.876548 115.159468 L 87.876548 0.000450536 Z M 62.360984 0.000450536 " transform="matrix(0.996787, 0, 0, -0.996787, 41.866698, 173.723105)"/>
<path fill="none" stroke-width="2.98883" stroke-linecap="round" stroke-linejoin="miter" stroke="rgb(4.31366%, 32.548523%, 58.036804%)" stroke-opacity="1" stroke-miterlimit="10" d="M 143.151779 0.568682 L 165.830103 0.568682 " transform="matrix(0.996787, 0, 0, -0.996787, 41.866698, 173.723105)"/>
<path fill="none" stroke-width="2.98883" stroke-linecap="round" stroke-linejoin="miter" stroke="rgb(4.31366%, 32.548523%, 58.036804%)" stroke-opacity="1" stroke-miterlimit="10" d="M 177.167306 0.568682 L 199.84563 0.568682 " transform="matrix(0.996787, 0, 0, -0.996787, 41.866698, 173.723105)"/>
<g fill="rgb(13.331604%, 13.331604%, 13.331604%)" fill-opacity="1">
<use xlink:href="#glyph-2-0" x="75.451458" y="166.983825"/>
<use xlink:href="#glyph-2-1" x="79.144734" y="166.983825"/>
<use xlink:href="#glyph-2-2" x="82.838011" y="166.983825"/>
<use xlink:href="#glyph-2-3" x="86.531288" y="166.983825"/>
</g>
<g fill="rgb(13.331604%, 13.331604%, 13.331604%)" fill-opacity="1">
<use xlink:href="#glyph-2-2" x="107.511132" y="51.137189"/>
<use xlink:href="#glyph-2-4" x="111.204409" y="51.137189"/>
<use xlink:href="#glyph-2-1" x="114.897686" y="51.137189"/>
<use xlink:href="#glyph-2-2" x="118.590962" y="51.137189"/>
<use xlink:href="#glyph-2-3" x="122.284239" y="51.137189"/>
</g>
<g fill="rgb(13.331604%, 13.331604%, 13.331604%)" fill-opacity="1">
<use xlink:href="#glyph-2-0" x="190.319249" y="166.983825"/>
<use xlink:href="#glyph-2-1" x="194.012525" y="166.983825"/>
<use xlink:href="#glyph-2-5" x="197.705802" y="166.983825"/>
</g>
<g fill="rgb(13.331604%, 13.331604%, 13.331604%)" fill-opacity="1">
<use xlink:href="#glyph-2-0" x="224.22597" y="166.983825"/>
<use xlink:href="#glyph-2-1" x="227.919247" y="166.983825"/>
<use xlink:href="#glyph-2-5" x="231.612524" y="166.983825"/>
</g>
<g fill="rgb(13.331604%, 13.331604%, 13.331604%)" fill-opacity="1">
<use xlink:href="#glyph-0-6" x="76.104353" y="185.336676"/>
</g>
<g fill="rgb(13.331604%, 13.331604%, 13.331604%)" fill-opacity="1">
<use xlink:href="#glyph-0-7" x="78.977274" y="185.336676"/>
<use xlink:href="#glyph-0-8" x="81.321888" y="185.336676"/>
<use xlink:href="#glyph-0-9" x="82.93412" y="185.336676"/>
</g>
<g fill="rgb(13.331604%, 13.331604%, 13.331604%)" fill-opacity="1">
<use xlink:href="#glyph-0-10" x="85.423223" y="185.336676"/>
<use xlink:href="#glyph-0-7" x="87.22513" y="185.336676"/>
</g>
<g fill="rgb(13.331604%, 13.331604%, 13.331604%)" fill-opacity="1">
<use xlink:href="#glyph-0-11" x="111.644809" y="185.336676"/>
<use xlink:href="#glyph-0-8" x="114.179097" y="185.336676"/>
<use xlink:href="#glyph-0-12" x="115.791329" y="185.336676"/>
<use xlink:href="#glyph-0-7" x="117.696514" y="185.336676"/>
<use xlink:href="#glyph-0-10" x="120.041127" y="185.336676"/>
</g>
<g fill="rgb(13.331604%, 13.331604%, 13.331604%)" fill-opacity="1">
<use xlink:href="#glyph-0-6" x="189.126094" y="185.336676"/>
</g>
<g fill="rgb(13.331604%, 13.331604%, 13.331604%)" fill-opacity="1">
<use xlink:href="#glyph-0-7" x="191.999015" y="185.336676"/>
<use xlink:href="#glyph-0-8" x="194.343628" y="185.336676"/>
<use xlink:href="#glyph-0-9" x="195.95586" y="185.336676"/>
</g>
<g fill="rgb(13.331604%, 13.331604%, 13.331604%)" fill-opacity="1">
<use xlink:href="#glyph-0-10" x="198.444964" y="185.336676"/>
<use xlink:href="#glyph-0-7" x="200.24687" y="185.336676"/>
</g>
<g fill="rgb(13.331604%, 13.331604%, 13.331604%)" fill-opacity="1">
<use xlink:href="#glyph-0-11" x="224.66655" y="185.336676"/>
<use xlink:href="#glyph-0-8" x="227.200838" y="185.336676"/>
<use xlink:href="#glyph-0-12" x="228.81307" y="185.336676"/>
<use xlink:href="#glyph-0-7" x="230.718254" y="185.336676"/>
<use xlink:href="#glyph-0-10" x="233.062868" y="185.336676"/>
</g>
<g fill="rgb(13.331604%, 13.331604%, 13.331604%)" fill-opacity="1">
<use xlink:href="#glyph-2-6" x="58.216006" y="196.652207"/>
</g>
<g fill="rgb(13.331604%, 13.331604%, 13.331604%)" fill-opacity="1">
<use xlink:href="#glyph-2-7" x="62.64196" y="196.652207"/>
<use xlink:href="#glyph-2-8" x="65.164622" y="196.652207"/>
<use xlink:href="#glyph-2-9" x="68.712614" y="196.652207"/>
<use xlink:href="#glyph-2-10" x="70.474793" y="196.652207"/>
<use xlink:href="#glyph-2-9" x="74.288329" y="196.652207"/>
<use xlink:href="#glyph-2-10" x="76.050508" y="196.652207"/>
<use xlink:href="#glyph-2-11" x="79.864044" y="196.652207"/>
</g>
<g fill="rgb(13.331604%, 13.331604%, 13.331604%)" fill-opacity="1">
<use xlink:href="#glyph-2-12" x="86.025067" y="196.652207"/>
<use xlink:href="#glyph-2-13" x="88.85637" y="196.652207"/>
<use xlink:href="#glyph-2-14" x="92.13882" y="196.652207"/>
</g>
<g fill="rgb(13.331604%, 13.331604%, 13.331604%)" fill-opacity="1">
<use xlink:href="#glyph-2-15" x="97.266865" y="196.652207"/>
<use xlink:href="#glyph-2-2" x="100.139182" y="196.652207"/>
<use xlink:href="#glyph-2-3" x="103.832458" y="196.652207"/>
</g>
<g fill="rgb(13.331604%, 13.331604%, 13.331604%)" fill-opacity="1">
<use xlink:href="#glyph-2-16" x="109.986529" y="196.652207"/>
<use xlink:href="#glyph-2-17" x="113.800065" y="196.652207"/>
<use xlink:href="#glyph-2-13" x="117.613601" y="196.652207"/>
<use xlink:href="#glyph-2-12" x="120.896051" y="196.652207"/>
<use xlink:href="#glyph-2-14" x="123.727354" y="196.652207"/>
<use xlink:href="#glyph-2-9" x="126.394605" y="196.652207"/>
<use xlink:href="#glyph-2-18" x="128.156784" y="196.652207"/>
<use xlink:href="#glyph-2-10" x="131.850061" y="196.652207"/>
<use xlink:href="#glyph-2-12" x="135.663597" y="196.652207"/>
<use xlink:href="#glyph-2-19" x="138.494901" y="196.652207"/>
</g>
<g fill="rgb(13.331604%, 13.331604%, 13.331604%)" fill-opacity="1">
<use xlink:href="#glyph-2-20" x="167.541659" y="196.652207"/>
<use xlink:href="#glyph-2-13" x="172.755206" y="196.652207"/>
<use xlink:href="#glyph-2-21" x="176.037655" y="196.652207"/>
<use xlink:href="#glyph-2-22" x="177.799834" y="196.652207"/>
<use xlink:href="#glyph-2-23" x="181.61337" y="196.652207"/>
<use xlink:href="#glyph-2-18" x="184.075555" y="196.652207"/>
<use xlink:href="#glyph-2-17" x="187.768832" y="196.652207"/>
<use xlink:href="#glyph-2-14" x="191.582367" y="196.652207"/>
</g>
<g fill="rgb(13.331604%, 13.331604%, 13.331604%)" fill-opacity="1">
<use xlink:href="#glyph-2-7" x="196.710413" y="196.652207"/>
<use xlink:href="#glyph-2-13" x="199.233074" y="196.652207"/>
<use xlink:href="#glyph-2-24" x="202.515524" y="196.652207"/>
</g>
<g fill="rgb(13.331604%, 13.331604%, 13.331604%)" fill-opacity="1">
<use xlink:href="#glyph-2-18" x="206.537601" y="196.652207"/>
</g>
<g fill="rgb(13.331604%, 13.331604%, 13.331604%)" fill-opacity="1">
<use xlink:href="#glyph-2-7" x="210.022336" y="196.652207"/>
<use xlink:href="#glyph-2-14" x="212.544998" y="196.652207"/>
</g>
<g fill="rgb(13.331604%, 13.331604%, 13.331604%)" fill-opacity="1">
<use xlink:href="#glyph-2-15" x="217.673043" y="196.652207"/>
<use xlink:href="#glyph-2-5" x="220.54536" y="196.652207"/>
</g>
<g fill="rgb(13.331604%, 13.331604%, 13.331604%)" fill-opacity="1">
<use xlink:href="#glyph-2-16" x="226.699431" y="196.652207"/>
<use xlink:href="#glyph-2-17" x="230.512967" y="196.652207"/>
<use xlink:href="#glyph-2-13" x="234.326503" y="196.652207"/>
<use xlink:href="#glyph-2-12" x="237.608952" y="196.652207"/>
<use xlink:href="#glyph-2-14" x="240.440256" y="196.652207"/>
<use xlink:href="#glyph-2-9" x="243.107507" y="196.652207"/>
<use xlink:href="#glyph-2-18" x="244.869686" y="196.652207"/>
<use xlink:href="#glyph-2-10" x="248.562963" y="196.652207"/>
<use xlink:href="#glyph-2-12" x="252.376499" y="196.652207"/>
<use xlink:href="#glyph-2-19" x="255.207802" y="196.652207"/>
</g>
<g fill="rgb(13.331604%, 13.331604%, 13.331604%)" fill-opacity="1">
<use xlink:href="#glyph-3-0" x="77.817831" y="13.488528"/>
<use xlink:href="#glyph-3-1" x="83.279595" y="13.488528"/>
<use xlink:href="#glyph-3-2" x="87.971832" y="13.488528"/>
<use xlink:href="#glyph-3-3" x="95.718046" y="13.488528"/>
</g>
<g fill="rgb(13.331604%, 13.331604%, 13.331604%)" fill-opacity="1">
<use xlink:href="#glyph-3-4" x="103.566148" y="13.488528"/>
<use xlink:href="#glyph-3-5" x="108.804472" y="13.488528"/>
<use xlink:href="#glyph-3-3" x="113.819357" y="13.488528"/>
<use xlink:href="#glyph-3-6" x="118.387362" y="13.488528"/>
<use xlink:href="#glyph-3-7" x="121.664778" y="13.488528"/>
<use xlink:href="#glyph-3-8" x="125.277354" y="13.488528"/>
<use xlink:href="#glyph-3-5" x="130.292238" y="13.488528"/>
<use xlink:href="#glyph-3-3" x="135.307123" y="13.488528"/>
<use xlink:href="#glyph-3-9" x="139.875127" y="13.488528"/>
</g>
<g fill="rgb(13.331604%, 13.331604%, 13.331604%)" fill-opacity="1">
<use xlink:href="#glyph-3-7" x="145.877616" y="13.488528"/>
</g>
<g fill="rgb(13.331604%, 13.331604%, 13.331604%)" fill-opacity="1">
<use xlink:href="#glyph-3-10" x="149.222064" y="13.488528"/>
</g>
<g fill="rgb(13.331604%, 13.331604%, 13.331604%)" fill-opacity="1">
<use xlink:href="#glyph-3-11" x="155.598144" y="13.488528"/>
</g>
<g fill="rgb(13.331604%, 13.331604%, 13.331604%)" fill-opacity="1">
<use xlink:href="#glyph-3-12" x="163.793919" y="13.488528"/>
<use xlink:href="#glyph-3-3" x="168.262716" y="13.488528"/>
<use xlink:href="#glyph-3-13" x="172.830721" y="13.488528"/>
<use xlink:href="#glyph-3-14" x="176.157294" y="13.488528"/>
</g>
<g fill="rgb(13.331604%, 13.331604%, 13.331604%)" fill-opacity="1">
<use xlink:href="#glyph-3-15" x="183.906189" y="13.488528"/>
<use xlink:href="#glyph-3-16" x="188.921073" y="13.488528"/>
<use xlink:href="#glyph-3-17" x="191.205522" y="13.488528"/>
<use xlink:href="#glyph-3-3" x="196.940777" y="13.488528"/>
<use xlink:href="#glyph-3-13" x="201.508782" y="13.488528"/>
<use xlink:href="#glyph-3-3" x="204.835355" y="13.488528"/>
<use xlink:href="#glyph-3-5" x="209.403359" y="13.488528"/>
<use xlink:href="#glyph-3-7" x="214.418244" y="13.488528"/>
</g>
<g fill="rgb(13.331604%, 13.331604%, 13.331604%)" fill-opacity="1">
<use xlink:href="#glyph-3-11" x="221.301979" y="13.488528"/>
<use xlink:href="#glyph-3-8" x="226.217657" y="13.488528"/>
<use xlink:href="#glyph-3-7" x="231.232541" y="13.488528"/>
<use xlink:href="#glyph-3-18" x="234.845117" y="13.488528"/>
<use xlink:href="#glyph-3-11" x="239.214707" y="13.488528"/>
<use xlink:href="#glyph-3-2" x="244.130384" y="13.488528"/>
<use xlink:href="#glyph-3-3" x="251.876598" y="13.488528"/>
<use xlink:href="#glyph-3-19" x="256.444603" y="13.488528"/>
</g>
</svg>
