<?xml version="1.0" encoding="UTF-8"?>
<svg xmlns="http://www.w3.org/2000/svg" xmlns:xlink="http://www.w3.org/1999/xlink" width="105.244pt" height="89.133pt" viewBox="0 0 105.244 89.133">
<defs>
<g>
<g id="glyph-0-0">
<path d="M 0.875 -6.15625 L 0.875 0 L 3.296875 0 C 4.625 0 5.578125 -0.8125 5.578125 -1.671875 C 5.578125 -2.453125 4.765625 -3.078125 3.8125 -3.21875 C 4.6875 -3.4375 5.3125 -3.96875 5.3125 -4.609375 C 5.3125 -5.4375 4.328125 -6.15625 3.0625 -6.15625 Z M 1.671875 -3.484375 L 1.671875 -5.640625 L 2.796875 -5.640625 C 3.703125 -5.640625 4.578125 -5.21875 4.578125 -4.59375 C 4.578125 -4.078125 3.9375 -3.484375 2.703125 -3.484375 Z M 1.671875 -0.53125 L 1.671875 -2.90625 L 2.96875 -2.90625 C 3.90625 -2.90625 4.796875 -2.375 4.796875 -1.671875 C 4.796875 -1.046875 4.03125 -0.53125 3.046875 -0.53125 Z M 1.671875 -0.53125 "/>
</g>
<g id="glyph-0-1">
<path d="M 3.65625 -2.5625 C 3.65625 -3.4375 3.015625 -4.09375 2.125 -4.09375 C 1.546875 -4.09375 1.125 -3.9375 0.703125 -3.703125 L 0.75 -3.078125 C 1.203125 -3.40625 1.640625 -3.53125 2.125 -3.53125 C 2.625 -3.53125 2.921875 -3.140625 2.921875 -2.5625 L 2.921875 -2.1875 C 1.390625 -2.140625 0.390625 -1.75 0.390625 -1.03125 C 0.390625 -0.609375 0.671875 0.09375 1.4375 0.09375 C 1.609375 0.09375 2.390625 0.078125 2.953125 -0.34375 L 2.953125 0 L 3.65625 0 Z M 2.921875 -1.25 C 2.921875 -1.0625 2.921875 -0.828125 2.59375 -0.640625 C 2.375 -0.515625 2.078125 -0.484375 1.90625 -0.484375 C 1.453125 -0.484375 1.078125 -0.6875 1.078125 -1.046875 C 1.078125 -1.671875 2.796875 -1.703125 2.921875 -1.703125 Z M 2.921875 -1.25 "/>
</g>
<g id="glyph-0-2">
<path d="M 3.140625 -3.8125 C 2.578125 -4.0625 2.171875 -4.09375 1.8125 -4.09375 C 1.609375 -4.09375 0.296875 -4.09375 0.296875 -2.921875 C 0.296875 -2.5 0.5625 -2.234375 0.65625 -2.125 C 1 -1.84375 1.21875 -1.796875 1.828125 -1.671875 C 2.109375 -1.625 2.625 -1.53125 2.625 -1.078125 C 2.625 -0.5 1.90625 -0.5 1.78125 -0.5 C 1.265625 -0.5 0.75 -0.671875 0.375 -0.9375 L 0.25 -0.296875 C 0.796875 -0.015625 1.328125 0.09375 1.78125 0.09375 C 2.359375 0.09375 3.28125 -0.09375 3.28125 -1.140625 C 3.28125 -1.453125 3.15625 -1.765625 2.84375 -2.03125 C 2.546875 -2.296875 2.28125 -2.34375 1.734375 -2.453125 C 1.40625 -2.515625 0.96875 -2.59375 0.96875 -3.015625 C 0.96875 -3.53125 1.59375 -3.53125 1.734375 -3.53125 C 2.375 -3.53125 2.765625 -3.328125 3.015625 -3.1875 Z M 3.140625 -3.8125 "/>
</g>
<g id="glyph-0-3">
<path d="M 3.796875 -1.9375 C 3.796875 -2.21875 3.78125 -2.890625 3.4375 -3.421875 C 3.0625 -3.984375 2.5 -4.09375 2.15625 -4.09375 C 1.125 -4.09375 0.3125 -3.140625 0.3125 -2 C 0.3125 -0.828125 1.1875 0.09375 2.296875 0.09375 C 2.71875 0.09375 3.234375 -0.015625 3.75 -0.34375 L 3.6875 -0.953125 C 3.140625 -0.546875 2.609375 -0.484375 2.296875 -0.484375 C 1.5625 -0.484375 1 -1.125 0.96875 -1.9375 Z M 1.015625 -2.46875 C 1.15625 -3.03125 1.59375 -3.515625 2.15625 -3.515625 C 2.484375 -3.515625 3.09375 -3.359375 3.25 -2.46875 Z M 1.015625 -2.46875 "/>
</g>
<g id="glyph-0-4">
<path d="M 4.796875 -3.125 C 4.578125 -2.53125 4.09375 -1.296875 3.984375 -0.875 L 3.96875 -0.875 C 3.890625 -1.234375 3.484375 -2.3125 3.3125 -2.734375 L 2.125 -5.765625 L 1.96875 -6.15625 L 0.90625 -6.15625 L 0.90625 0 L 1.640625 0 L 1.640625 -5.46875 C 1.75 -5.015625 2.265625 -3.6875 2.359375 -3.4375 L 3.34375 -0.9375 C 3.40625 -0.765625 3.578125 -0.3125 3.625 -0.1875 L 4.296875 -0.1875 L 5.53125 -3.3125 C 5.65625 -3.640625 6.203125 -5.046875 6.3125 -5.46875 L 6.328125 -5.46875 L 6.328125 0 L 7.0625 0 L 7.0625 -6.15625 L 5.984375 -6.15625 Z M 4.796875 -3.125 "/>
</g>
<g id="glyph-0-5">
<path d="M 4.28125 -1.953125 C 4.28125 -3.109375 3.40625 -4.09375 2.265625 -4.09375 C 1.171875 -4.09375 0.265625 -3.140625 0.265625 -1.953125 C 0.265625 -0.78125 1.203125 0.09375 2.265625 0.09375 C 3.375 0.09375 4.28125 -0.796875 4.28125 -1.953125 Z M 2.28125 -0.5 C 1.59375 -0.5 1 -1.03125 1 -2.046875 C 1 -3.078125 1.671875 -3.515625 2.265625 -3.515625 C 2.90625 -3.515625 3.546875 -3.0625 3.546875 -2.046875 C 3.546875 -1.015625 2.921875 -0.5 2.28125 -0.5 Z M 2.28125 -0.5 "/>
</g>
<g id="glyph-0-6">
<path d="M 3.96875 -6.15625 L 3.25 -6.15625 L 3.25 -3.546875 C 2.765625 -3.96875 2.1875 -4.03125 1.90625 -4.03125 C 1.015625 -4.03125 0.3125 -3.109375 0.3125 -1.96875 C 0.3125 -0.828125 1 0.09375 1.875 0.09375 C 2.140625 0.09375 2.703125 0.03125 3.234375 -0.46875 L 3.234375 0 L 3.96875 0 Z M 3.234375 -1.25 C 3.234375 -1.078125 3.234375 -1.0625 3.140625 -0.9375 C 2.890625 -0.625 2.59375 -0.484375 2.265625 -0.484375 C 1.6875 -0.484375 1.0625 -0.890625 1.0625 -1.96875 C 1.0625 -3.09375 1.8125 -3.46875 2.375 -3.46875 C 2.78125 -3.46875 3.0625 -3.234375 3.234375 -3 Z M 3.234375 -1.25 "/>
</g>
<g id="glyph-0-7">
<path d="M 1.4375 -6.15625 L 0.734375 -6.15625 L 0.734375 0 L 1.4375 0 Z M 1.4375 -6.15625 "/>
</g>
<g id="glyph-0-8">
<path d="M 1.6875 -6.15625 L 0.84375 -6.15625 L 0.84375 0 L 4.578125 0 L 4.578125 -0.625 L 4.1875 -0.625 C 3.46875 -0.625 2.75 -0.609375 2.03125 -0.609375 L 1.6875 -0.609375 Z M 1.6875 -6.15625 "/>
</g>
<g id="glyph-0-9">
<path d="M 3.734375 -0.953125 C 3.3125 -0.671875 2.84375 -0.5 2.3125 -0.5 C 1.546875 -0.5 1.0625 -1.140625 1.0625 -1.984375 C 1.0625 -2.65625 1.390625 -3.484375 2.34375 -3.484375 C 2.90625 -3.484375 3.1875 -3.375 3.625 -3.078125 L 3.75 -3.703125 C 3.25 -3.984375 2.96875 -4.09375 2.328125 -4.09375 C 1.078125 -4.09375 0.3125 -3.03125 0.3125 -1.96875 C 0.3125 -0.875 1.140625 0.09375 2.296875 0.09375 C 2.921875 0.09375 3.390625 -0.09375 3.796875 -0.328125 Z M 3.734375 -0.953125 "/>
</g>
<g id="glyph-0-10">
<path d="M 4.078125 -3.9375 L 3.375 -3.9375 C 2.703125 -2.328125 2.203125 -1.140625 2.171875 -0.53125 C 2.140625 -0.9375 1.765625 -1.84375 1.65625 -2.109375 C 1.296875 -3.015625 1.140625 -3.3125 0.875 -3.9375 L 0.125 -3.9375 L 1.90625 0 L 1.578125 0.796875 C 1.34375 1.28125 1.171875 1.28125 1.046875 1.28125 C 0.90625 1.28125 0.59375 1.25 0.328125 1.140625 L 0.375 1.75 C 0.40625 1.75 0.734375 1.8125 1.03125 1.8125 C 1.28125 1.8125 1.65625 1.8125 2.109375 0.765625 Z M 4.078125 -3.9375 "/>
</g>
</g>
<clipPath id="clip-0">
<path clip-rule="nonzero" d="M 0.132812 0 L 104.363281 0 L 104.363281 47 L 0.132812 47 Z M 0.132812 0 "/>
</clipPath>
<clipPath id="clip-1">
<path clip-rule="nonzero" d="M 0.132812 41 L 104.363281 41 L 104.363281 88.273438 L 0.132812 88.273438 Z M 0.132812 41 "/>
</clipPath>
</defs>
<path fill-rule="nonzero" fill="rgb(16.862488%, 18.03894%, 19.999695%)" fill-opacity="1" d="M 98 4.390625 L 6.496094 4.390625 C 5.40625 4.390625 4.523438 5.273438 4.523438 6.363281 L 4.523438 31.894531 C 4.523438 32.984375 5.40625 33.867188 6.496094 33.867188 L 98 33.867188 C 99.089844 33.867188 99.972656 32.984375 99.972656 31.894531 L 99.972656 6.363281 C 99.972656 5.273438 99.089844 4.390625 98 4.390625 Z M 98 4.390625 "/>
<g clip-path="url(#clip-0)">
<path fill="none" stroke-width="0.89664" stroke-linecap="butt" stroke-linejoin="miter" stroke="rgb(34.510803%, 65.098572%, 100%)" stroke-opacity="1" stroke-miterlimit="10" d="M 46.197393 14.881667 L -46.196575 14.881667 C -47.297019 14.881667 -48.188419 13.990268 -48.188419 12.889823 L -48.188419 -12.889771 C -48.188419 -13.990215 -47.297019 -14.881615 -46.196575 -14.881615 L 46.197393 -14.881615 C 47.297838 -14.881615 48.189238 -13.990215 48.189238 -12.889771 L 48.189238 12.889823 C 48.189238 13.990268 47.297838 14.881667 46.197393 14.881667 Z M 46.197393 14.881667 " transform="matrix(0.990367, 0, 0, -0.990367, 52.247641, 19.128932)"/>
</g>
<g fill="rgb(90.979004%, 90.979004%, 90.979004%)" fill-opacity="1">
<use xlink:href="#glyph-0-0" x="29.840596" y="22.211944"/>
<use xlink:href="#glyph-0-1" x="35.932292" y="22.211944"/>
<use xlink:href="#glyph-0-2" x="40.317248" y="22.211944"/>
<use xlink:href="#glyph-0-3" x="43.815977" y="22.211944"/>
</g>
<g fill="rgb(90.979004%, 90.979004%, 90.979004%)" fill-opacity="1">
<use xlink:href="#glyph-0-4" x="50.91822" y="22.211944"/>
<use xlink:href="#glyph-0-5" x="58.893369" y="22.211944"/>
</g>
<g fill="rgb(90.979004%, 90.979004%, 90.979004%)" fill-opacity="1">
<use xlink:href="#glyph-0-6" x="63.705454" y="22.211944"/>
<use xlink:href="#glyph-0-3" x="68.419858" y="22.211944"/>
<use xlink:href="#glyph-0-7" x="72.476253" y="22.211944"/>
</g>
<path fill-rule="nonzero" fill="rgb(16.862488%, 18.03894%, 19.999695%)" fill-opacity="1" d="M 98 54.40625 L 6.496094 54.40625 C 5.40625 54.40625 4.523438 55.289062 4.523438 56.378906 L 4.523438 81.910156 C 4.523438 83 5.40625 83.882812 6.496094 83.882812 L 98 83.882812 C 99.089844 83.882812 99.972656 83 99.972656 81.910156 L 99.972656 56.378906 C 99.972656 55.289062 99.089844 54.40625 98 54.40625 Z M 98 54.40625 "/>
<g clip-path="url(#clip-1)">
<path fill="none" stroke-width="0.89664" stroke-linecap="butt" stroke-linejoin="miter" stroke="rgb(34.510803%, 65.098572%, 100%)" stroke-opacity="1" stroke-miterlimit="10" d="M 46.197393 -35.620462 L -46.196575 -35.620462 C -47.297019 -35.620462 -48.188419 -36.511861 -48.188419 -37.612306 L -48.188419 -63.391899 C -48.188419 -64.492344 -47.297019 -65.383744 -46.196575 -65.383744 L 46.197393 -65.383744 C 47.297838 -65.383744 48.189238 -64.492344 48.189238 -63.391899 L 48.189238 -37.612306 C 48.189238 -36.511861 47.297838 -35.620462 46.197393 -35.620462 Z M 46.197393 -35.620462 " transform="matrix(0.990367, 0, 0, -0.990367, 52.247641, 19.128932)"/>
</g>
<g fill="rgb(90.979004%, 90.979004%, 90.979004%)" fill-opacity="1">
<use xlink:href="#glyph-0-8" x="23.624064" y="71.364832"/>
<use xlink:href="#glyph-0-5" x="28.598653" y="71.364832"/>
<use xlink:href="#glyph-0-1" x="33.162097" y="71.364832"/>
<use xlink:href="#glyph-0-6" x="37.547053" y="71.364832"/>
<use xlink:href="#glyph-0-3" x="42.261458" y="71.364832"/>
<use xlink:href="#glyph-0-6" x="46.317853" y="71.364832"/>
</g>
<g fill="rgb(90.979004%, 90.979004%, 90.979004%)" fill-opacity="1">
<use xlink:href="#glyph-0-8" x="54.078105" y="71.364832"/>
<use xlink:href="#glyph-0-5" x="59.052694" y="71.364832"/>
</g>
<g fill="rgb(90.979004%, 90.979004%, 90.979004%)" fill-opacity="1">
<use xlink:href="#glyph-0-9" x="63.864779" y="71.364832"/>
<use xlink:href="#glyph-0-1" x="67.921174" y="71.364832"/>
<use xlink:href="#glyph-0-7" x="72.30613" y="71.364832"/>
<use xlink:href="#glyph-0-7" x="74.485288" y="71.364832"/>
<use xlink:href="#glyph-0-10" x="76.664445" y="71.364832"/>
</g>
<path fill="none" stroke-width="0.89664" stroke-linecap="butt" stroke-linejoin="miter" stroke="rgb(34.510803%, 65.098572%, 100%)" stroke-opacity="1" stroke-miterlimit="10" d="M -0.0015627 -15.331259 L -0.0015627 -31.333066 " transform="matrix(0.990367, 0, 0, -0.990367, 52.247641, 19.128932)"/>
<path fill-rule="nonzero" fill="rgb(34.510803%, 65.098572%, 100%)" fill-opacity="1" stroke-width="0.89664" stroke-linecap="butt" stroke-linejoin="miter" stroke="rgb(34.510803%, 65.098572%, 100%)" stroke-opacity="1" stroke-miterlimit="10" d="M 4.959986 -0.0015627 L 1.449607 1.331593 L 2.621048 -0.0015627 L 1.449607 -1.330774 Z M 4.959986 -0.0015627 " transform="matrix(0, 0.990367, 0.990367, 0, 52.247641, 47.787014)"/>
</svg>
